<svg xmlns="http://www.w3.org/2000/svg" viewBox="0 0 612 612.8">
  <path fill="#FFF" d="M0 0h612v612H0V0z"/>
  <path stroke="#000" stroke-width="1.5" d="M523.6 612h4.7v-.4l-.4-.4c-.2-.2-1.1-1.5-1.7-2.5-.6-1.3-2.1-3.6-3-4.7l-1.3-2.1-1.7-2.1c-.6-1.3-2.1-3.6-3-4.7-.6-1.1-2.1-3.2-3-4.2l-1.3-2.5 1.3.8c.6.2 2.1 1.5 3 2.6l1.7 1.7 1.7 2.1c.9 1.1 2.3 3.2 3 4.2l3.4 4.2c.9 1.1 2.5 3.6 3.4 5.1l2.1 3h2.1l-.4-.8v-.9l-1.7-2.1-1.3-2.5-1.3-2.1-1.3-2.5-1.7-2.1-1.3-2.1-1.7-2.1-1.3-2.5-1.3-2.1-1.3-2.5-1.7-2.1-1.7-2.1-1.7-2.1-1.3-2.1-1.7-2.1-1.3-2.1-1.7-2.1-1.3-2.6-1.7-1.7-1.7-2.1-1.7-2.1-1.3-2.6-1.3-2.1-1.3-2.5-1.7-2.1-1.3-2.1-1.7-2.1-1.7-2.1-1.7-1.7-1.7-2.1-1.3-2.5-1.3-2.5-1.7-2.1-1.3-2.1-1.2-3-1.3-2.1-1.7-2.1-1.7-2.1-1.7-2.1-1.3-2.1-1.7-2.1-1.3-2.5-1.7-1.7-1.7-2.1-1.3-2.1-1.3-2.5-1.7-2.1-1.3-2.6-1.7-2.1-1.3-2.1-1.7-2.1-1.3-2.5-1.3-2.1-1.3-2.6-1.7-2.1-1.3-2.1-1.7-2.1-1-3-1.7-1.7-1.7-2.1-1.7-2.1-1.7-2.1-1.7-1.7-1.7-2.1-1.7-1.7-1.7-2.1-2.1-1.7-1.7-2.1-1.7-1.7-1.7-2.1-2.1-1.7-1.7-2.1-1.7-2.1-1.3-2.1-.9-1.7-.9-2.1 1.7 2.1 1.7 2.1 1.7 1.7 2.1 1.7 1.7 2.1 1.7 1.7 1.7 2.1 2.1 1.7.9.4h.9l-1.3-2.6-1.3-2.5-1.3-2.1-1.3-2.6-1.3-2.1-1.3-2.5-2.1-1.7-1.7-2.1-1.7-1.7-1.7-2.1-2.1-1.7-1.7-2.1-1.7-1.7-1.7-2.1-1.6-2-1.7-2.1-2.1-1.7-1.7-2.1-1.7-1.7-1.7-2.1-2.1-1.7-1.7-2.1-2.1 1.7-2.1 1.3-.4.9v.9l1.3 2.1 1.7 1.7.4 2.1.9 2.1.4 2.6.9 2.1-1.7-1.7-1.7-2.1-1.7-2.1-1.3-2.1-2.1 1.3-2.1 1.3.4 2.6.9 2.5 1.7 2.1 1.7 2.1 1.3 2.6 1.3 2.1 1.7 2.1 1.7 1.7 1.3 2.6 1.7 2.1 1.3 2.1 1.7 2.1 1.3 2.5 1.7 2.1 1.3 2.1 1.7 2.1 1.7 2.1 1.7 1.7 1.3 2.5 1.7 2.1 1.7 2.1 1.7 1.7 1.7 2.1 1.7 2.1 1.3 2.1 1.7 2.1 1.3 2.1 1.7 2.1 1.7 2.1 1.7 2.1 1.7 2.1 1.7 1.7 1.7 2.1 1.7 2.1 1.3 2.1 1.7 2.1 1.3 2.1 1.7 2.1 1.7 2.1 1.7 2.1 1.3 2.1 1.7 2.1 1.7 2.1 1.7 2.1 1.3 2.1 1.7 2.1 1.3 2.1 1.7 2.1 1.3 2.5 1.7 2.1 1.7 2.1 1.7 1.7 1.7 2.1 1.7 2.1 1.3 2.1 1.7 2.1 1.3 2.1 1.7 2.1 1.7 2.1 1.7 2.1 1.3 2.1 1.7 2.1 1.7 2.1 1.7 2.1 1.3 2.1 1.7 2.1 1.3 2.1 1.7 2.1 1.7 2.1 1.7 2.1 1.3 2.1 1.7 2.1 1.7 2.1 2.1 1.7 1.3 2.1 1.7 2.1 1.7 2.1 1.7 1.7 1.7 2.1 1.7 2.1 1.7 2.1 1.7 1.7 1.7 2.1 1.7 2.1 1.3 2.1 1.7 2.1v.4h-.4zM283.1 258.4c-.8-.8-2.8-2.5-3.8-3.4-.8-1.1-2.8-2.8-3.8-3.4-1.1-.8-3.6-1.3-5.1-.8-1.3.4-3.8 1.5-5.1 2.1-1.3.6-3.8 1.7-5.1 2.1l-2.5.4h3c1.7-.2 4.7-.8 6-1.3 1.5-.4 3.8-.2 4.7.4 1.1.6 3 2.3 3.8 3.4.9 1.1 2.3 3.4 3 4.7.6 1.1 1.9 3.4 2.5 4.7.8 1.1 2.3 3.2 3 4.2.9 1.1 2.3 3.2 3 4.2l3.4 4.2c.9 1.1 2.3 3.2 3 4.2l3.4 4.2 3.4 4.2c.8.8 2.5 2.8 3.4 3.8.9.9 2.6 2.8 3.4 3.8 1.1.9 3 2.8 3.8 3.8.8.8 2.5 2.8 3.4 3.8 1.1.8 3 2.8 3.8 3.8.9.8 2.5 2.8 3.4 3.8.8.9 2.5 2.8 3.4 3.8 1.1.9 3 2.5 3.8 3.4 1.1.8 3.4 2.3 4.7 3 1.5.4 2.8.4 2.6 0-.2-.6-1.3-2.3-2.1-3.4-.6-1.1-2.1-3.2-3-4.2-.6-1.3-2.1-3.6-3-4.7l-1.3-2.1 1.3.4c.6.2 2.1 1.3 3 2.1 1.1.8 3 2.8 3.8 3.8.8.9 2.5 2.8 3.4 3.8.7.6 1.9 1.4 3.1 2.1.2-.9.8-1.6 1.9-1.7 1.3-.1 2.6-.6 3.7-1.4-.2-.1-.5-.1-.6-.2-1.1-.6-3-2.3-3.8-3.4-.6-1.1-2.1-3.2-3-4.2l-3.4-4.2c-.6-1.1-2.1-3.2-3-4.2-.8-1.1-2.5-3-3.4-3.8l-3.4-4.2c-.6-1.1-2.1-3.2-3-4.2-.6-1.3-2.1-3.6-3-4.7-.6-1.1-2.1-3.2-3-4.2-.6-1.3-2.1-3.4-3-4.2-.8-1.1-2.5-3-3.4-3.8l-3.4-4.2c-.8-1.1-2.5-3-3.4-3.8-.9-1.1-2.8-3-3.8-3.8-.9-1.1-2.5-3-3.4-3.8-.8-1.1-2.5-3-3.4-3.8-.9-1.1-2.8-3-3.8-3.8-.9-1.1-2.8-3-3.8-3.8-.8-.8-3.4-1.9-5.1-2.1-1.5-.4-4.5-.4-6 0-1.3.4-3.8 1.5-5.1 2.1-1.1.6-1.7 1.5-1.3 1.7.6 0 2.5-.4 3.8-.8 1.3-.6 3.8-.9 5.1-.4 1.3.4 3.2 1.9 3.8 3 .8 1.1 2.3 3.2 3 4.2.9 1.1 1.7 2.8 1.7 3.4-.1.5-1.2.3-2.2-.6zm-26.8-9.8c3.2-2.1 5.3-3.6 6.4-4.2 1.3-.8 3.8-2.1 5.1-2.5 1.3-.6 3.6-1.9 4.7-2.6 1.3-.9 3.4-2.6 4.2-3.4 1.1-.8 3-2.5 3.8-3.4 1.1-.9 3.2-2.1 4.2-2.6 1.3-.6 3.6-.6 4.7 0l2.5.9-2.1-1.7c-1.1-1.1-3.2-3-4.2-3.8-.9-.8-2.8-2.5-3.8-3.4-.8-.9-2.8-2.6-3.8-3.4-1.1-.9-3.2-2.3-4.2-3-1.1-.9-3.4-2.3-4.7-3-1.1-.8-3.2-2.3-4.2-3-1.1-.9-3.2-2.3-4.2-3l-4.2-3.4-3.4-4.2c-.6-1.1-2.1-3.2-3-4.2-.6-1.3-2.1-3.6-3-4.7-.6-1.1-2.1-3-3-3.8-.9-1.1-2.8-3-3.8-3.8l-3.4-4.2c-.6-1.1-1.9-3.4-2.6-4.7-.6-1.3-1.9-3.6-2.6-4.7-.6-1.3-2.1-3.6-3-4.7-.6-1.1-2.1-3.2-3-4.2-.6-1.3-2.1-3.6-3-4.7-.6-1.1-2.1-3.2-3-4.2l-3.4-4.2-2.6-4.2c-.6-1.3-2.1-3.6-3-4.7l-3.4-4.2c-.6-1.1-2.3-3-3.4-3.8l-3.4-4.2c-.6-1.1-2.1-3-3-3.8l-3.4-4.2c-.9-1.1-2.6-3-3.4-3.8-.9-1.1-2.8-3-3.8-3.8-.8-1.1-2.5-3-3.4-3.8l-3.4-4.2c-.6-1.1-2.1-3.2-3-4.2s-2.6-3-3.4-3.8l-3.4-4.2c-.6-1.3-2.1-3.4-3-4.2l-3.4-4.2c-.6-1.1-2.1-3.2-3-4.2-.8-1.1-2.5-3-3.4-3.8-.9-1.1-2.8-3-3.8-3.8-.9-1.1-2.6-3-3.4-3.8-.8-1.1-2.5-3-3.4-3.8-.9-1.1-2.8-3-3.8-3.8-.9-1.1-2.6-3-3.4-3.8l-3.4-4.2c-.9-1.1-2.6-3-3.4-3.8-.9-1.1-2.8-3-3.8-3.8-.8-.8-2.5-2.8-3.4-3.8s-2.6-2.5-3.4-3l-1.7-1.3.8 3c.6 1.3 1.9 3.6 2.6 4.7.8 1.1 2.3 3.2 3 4.2.8 1.1 2.3 3.4 3 4.7.9 1.1 2.3 3.2 3 4.2.8 1.1 2.3 3.4 3 4.7l3.4 4.2c.8.9 2.3 2.8 3 3.8l3.4 4.2c.8 1.1 2.3 3.2 3 4.2l3.4 4.2 3.4 4.2c.9.8 2.6 2.8 3.4 3.8.9.8 2.6 2.8 3.4 3.8 1.1.8 2.8 2.8 3.4 3.8l3.4 4.2c1.1.9 2.8 2.8 3.4 3.8.9 1.1 2.3 3.2 3 4.2l3.4 4.2c.9 1.1 2.3 3.2 3 4.2l3.4 4.2c.9 1.1 2.3 3.2 3 4.2l3.4 4.2c.9.9 2.3 3 3 4.2.8 1.1 2.3 3.2 3 4.2.9 1.1 2.3 3.2 3 4.2.9.9 1.9 2.8 2.1 3.8.4 1.1 1.5 3.2 2.1 4.2.9 1.1 2.3 3.4 3 4.7.6 1.3 1.9 3.6 2.5 4.7.9 1.1 2.3 3.4 3 4.7.9 1.1 2.3 3.2 3 4.2.8 1.1 2.3 3.2 3 4.2l3.4 4.2c.8 1.1 2.3 3.2 3 4.2l3.4 4.2c1.1.9 3 2.8 3.8 3.8.8.9 2.6 2.8 3.4 3.8.9.8 2.6 2.8 3.4 3.8l3.4 4.2c.9.8 2.6 2.8 3.4 3.8 1.1.9 3 2.8 3.8 3.8l3.4 3.4c1.1.8 3 2.8 3.8 3.8 1.1.8 3 2.6 3.8 3.4 1.1.9 3 2.8 3.8 3.8 1.1.9 3 2.8 3.8 3.8.9.8 2.3 2.5 3 3.4.6.6 0 1.7-1.3 2.1s-3.4 0-4.2-.9c-.9-1.1-2.8-3-3.8-3.8-.8-1.1-2.5-3-3.4-3.8-.9-1.1-2.5-3-3.4-3.8-.9-1.1-2.8-3-3.8-3.8-.9-1.1-2.6-3-3.4-3.8-.8-1.1-2.8-3-3.8-3.8-.8-1.1-2.6-3-3.4-3.8-.9-1.1-2.6-3-3.4-3.8l-3.4-4.2c-.9-1.1-2.6-3-3.4-3.8-.9-1.1-2.8-3-3.8-3.8l-3.4-4.2c-.6-1.1-2.3-3-3.4-3.8-.9-.8-2.6-2.8-3.4-3.8-.8-1.1-2.6-3-3.4-3.8l-3.4-4.2c-.8-1.1-2.5-3-3.4-3.8-.9-1.1-2.6-3-3.4-3.8l-3.4-4.2c-.8-1.1-2.6-3-3.4-3.8-.9-1.1-2.8-3-3.8-3.8-.9-1.1-2.6-3-3.4-3.8-.8-1.1-2.6-3-3.4-3.8-.9-1.1-2.8-3-3.8-3.8-.9-1.1-2.8-3-3.8-3.8-.8-.9-2.5-2.8-3.4-3.8s-2.8-3-3.8-3.8l-3.4-3.4c-.8-1.1-2.8-3-3.8-3.8-.8-1.1-2.8-3-3.8-3.8-.9-.9-2.8-2.6-3.8-3.4-.9-1.1-2.6-3-3.4-3.8-.8-1.1-2.8-3-3.8-3.8-.9-.8-2.8-2.6-3.8-3.4-.9-1.1-2.8-3-3.8-3.8-.9-.8-2.8-2.6-3.8-3.4-.8-1.1-2.8-3-3.8-3.8-.8-.9-2.8-2.6-3.8-3.4-.9-.8-2.8-2.6-3.8-3.4-.9-1.1-2.8-3-3.8-3.8-.8-.8-2.8-2.5-3.8-3.4-1.1-.9-3.2-2.3-4.2-3l-4.2-3.4c-.8-.9-2.8-2.6-3.8-3.4s-3.2-2.3-4.2-3l-4.2-3.4c-1.1-.9-3.4-2.3-4.7-3l-4.2-2.5c-1.1-.8-3.4-2.3-4.7-3-1.3-.6-3.6-1.9-4.7-2.6-1.1-.8-3.4-2.3-4.7-3L73 45l.8 1.7c.4.6 1.7 2.1 2.6 3l4.2 3.4 4.2 3.4c1.1.6 3 2.3 3.8 3.4 1.1.9 3 2.6 3.8 3.4 1.1.8 3 2.6 3.8 3.4l4.2 3.4c1.1.8 3 2.8 3.8 3.8.8.8 2.8 2.6 3.8 3.4s3 2.8 3.8 3.8l3.4 3.4 4.2 3.4 4.2 3.4c1.1.6 3.2 2.1 4.2 3s3 2.6 3.8 3.4c1.1.8 3 2.5 3.8 3.4l4.2 3.4c1.1.9 3 2.6 3.8 3.4 1.1.8 3 2.8 3.8 3.8 1.1.8 3 2.8 3.8 3.8l3.4 3.4c1.1.8 3 2.8 3.8 3.8 1.1.8 3 2.8 3.8 3.8.9.8 2.6 2.8 3.4 3.8 1.1.9 3 2.8 3.8 3.8.8.9 2.6 2.8 3.4 3.8.9.9 2.6 2.8 3.4 3.8 1.1.8 2.8 2.8 3.4 3.8l3.4 4.2c1.1.8 3 2.8 3.8 3.8.8.9 2.5 2.8 3.4 3.8.9.9 2.6 2.8 3.4 3.8l3.4 4.3c.8.8 2.6 2.8 3.4 3.8l3.4 4.2c.8.8 2.5 2.8 3.4 3.8.9.9 2.6 2.8 3.4 3.8l3.4 4.2c.8.9 2.6 2.8 3.4 3.8 1.1.9 3 2.8 3.8 3.8.9.8 2.6 2.8 3.4 3.8.8.8 2.6 2.8 3.4 3.8l3.4 4.2c.8.9 2.5 2.8 3.4 3.8 1.1.9 3 2.8 3.8 3.8.9.9 2.6 2.8 3.4 3.8.8.8 2.5 2.8 3.4 3.8s2.1 3.2 2.6 4.2c.6 1.1.8 3.6.4 5.1-.4 1.5-.6 4.5-.4 6 .4 1.5.8 4.2.8 5.5 0 1.1.2 3.6.4 5.1.4 1.3 2.3 2.5 3.8 2.5h3.5zm36.1-17l-.4-.8v.4l.4.4zM387.2 428v.4l3.4-3-1.7.8c-.7.5-1.5 1.4-1.7 1.8zm-189.6 8.1c-.9-.8-2.8-2.5-3.8-3.4-.9-1.1-2.8-3-3.8-3.8l-3.4-3.4-3.4-4.2c-.9-1.1-2.5-3-3.4-3.8l-3.4-4.2c-.6-1.3-2.1-3.4-3-4.2-.8-1.1-2.8-3-3.8-3.8-.8-.8-2.8-2.5-3.8-3.4-.9-1.1-2.8-3-3.8-3.8-.9-.8-2.5-2.8-3.4-3.8-.8-1.1-2.8-3-3.8-3.8l-3.4-3.4-3.4-4.2c-.8-1.1-2.5-3-3.4-3.8l-3.4-4.2c-.6-1.3-2.1-3.4-3-4.2l-3.4-4.2c-.6-1.1-2.1-3.2-3-4.2-.9-1.1-2.3-3.2-3-4.2-.6-1.3-1.9-3.4-2.5-4.2l-1.3-1.7.4 3 1.7 5.9c.4 1.3 1.5 3.8 2.1 5.1l2.6 5.1c.6 1.1 1.9 3.4 2.5 4.7.8 1.1 2.3 3.2 3 4.2.9 1.1 2.3 3.2 3 4.2l3.4 4.2 3.4 4.2c.8.9 2.5 2.8 3.4 3.8l3.4 4.2c.8.9 2.5 2.8 3.4 3.8.8.8 2.5 2.8 3.4 3.8 1.1.8 3 2.5 3.8 3.4 1.1.9 3 2.8 3.8 3.8 1.1.9 3 2.8 3.8 3.8l3.4 3.4c1.1.8 3 2.8 3.8 3.8 1.1.9 3 2.6 3.8 3.4l4.2 3.4c1.1.8 3 2.5 3.8 3.4l4.2 3.4c1.1.6 3.4 1.9 4.7 2.5 1.3.6 3.6 1.9 4.7 2.5 1.3.6 2.5.9 2.5.4l.4-.8c-3-2.5-4.9-4.2-5.9-5.1l-4.1-3.6zm232.9-68.5l-3.4 4.2c-.9.8-2.6 2.8-3.4 3.8-.8.8-2.5 2.8-3.4 3.8l-3.4 4.2c-.8.9-2.5 2.8-3.4 3.8-.8 1.1-2.8 3-3.8 3.8-.9.8-2.6 2.8-3.4 3.8-.8.8-2.8 2.5-3.8 3.4l-4.2 3.4c-1.1.6-3.2 2.3-4.2 3.4-.8.8-2.8 2.5-3.8 3.4-.8.9-2.5 2.8-3.4 3.8-.6 1.1-2.1 3.2-3 4.2l-3.4 4.2c-.6 1.1-2.3 3.2-3.4 4.2-.8.8-2.5 2.8-3.4 3.8-.9.8-2.8 2.5-3.8 3.4l-3.8 3.8c-.8.9-2.8 2.5-3.8 3.4-1.1.6-3.2 2.1-4.2 3-1.1.9-1.9 2.3-1.7 3l.9.8c3.8-1.5 6.2-2.8 7.2-3.4l4.7-3 4.2-3.4c1.1-.8 3-2.5 3.8-3.4 1.1-.9 3-2.5 3.8-3.4.8-1.1 2.8-3 3.8-3.8 1.1-.8 3-2.5 3.8-3.4.8-1.1 2.5-3 3.4-3.8l3.8-3.8c.8-1.1 2.5-3 3.4-3.8 1.1-.8 3-2.5 3.8-3.4l3.8-3.8c.9-1.1 2.6-3 3.4-3.8 1.1-1.1 2.8-3.2 3.4-4.2.9-1.1 2.6-3 3.4-3.8l3.4-4.2c.8-1.1 2.6-3 3.4-3.8.9-1.1 2.3-3.4 3-4.7.6-1.3 1.7-3.8 2.1-5.1.6-1.3 1.9-3.6 2.6-4.7.8-1.1 2.3-3.4 3-4.7l1.3-2.6-1.7 1.7c-1 1-2.7 2.7-3.6 3.7zm-284.3-4.2c-1.7-3.8-2.8-6.4-3.4-7.6l-2.6-5.1c-.4-1.3-1.5-3.8-2.1-5.1l-1.7-6-.9-6.4c0-1.7-.2-5.1-.4-6.8-.2-1.7-.2-4.9 0-6.4l1.7-5.9 1.7-5.5 1.7-5.5c.6-1.3 1.7-3.8 2.1-5.1.6-1.5 1.7-4.2 2.1-5.5l1.7-5.5c.6-1.5 1.7-4.2 2.1-5.5.4-1.5 1.5-4 2.1-5.1.6-1.3 1.9-3.6 2.6-4.7l3-4.7c.6-1.3 2.1-3.6 3-4.7.9-1.1 2.6-3 3.4-3.8.9-1.1 2.6-3 3.4-3.8 1.1-.9 3-2.6 3.8-3.4l3.8-3.8c.8-1.1 2.6-3 3.4-3.8l3.8-3.8c1.1-.9 3.2-2.3 4.2-3l5.1-2.6c1.3-.6 4-.8 5.5-.4 1.5.2 4 1.3 5.1 2.1 1.1.9 3 2.6 3.8 3.4 1.1.8 2.8 2.8 3.4 3.8l3.4 4.2c.9 1.1 2.3 3.2 3 4.2.8 1.1 2.3 3.4 3 4.7.9 1.1 2.1 3.4 2.6 4.7.6 1.3 1.1 4.2.9 5.9-.2 1.5-1.1 4.5-1.7 6-.4 1.3-1.5 3.8-2.1 5.1-.6 1.1-2.1 3.2-3 4.2l-3.4 4.2c-.6 1.1-2.1 3.2-3 4.2l-3.8 3.8c-.9.9-2.8 2.6-3.8 3.4-1.1.6-3.6 1.9-5.1 2.5l-5.5 1.7-5.5 1.7c-1.5.2-4.7.4-6.4.4s-4.9-.4-6.4-.9c-1.3-.4-3.6-1.7-4.7-2.6l-3.4-4.2c-.6-1.1-1.7-3.4-2.1-4.7-.4-1.5-1.1-4.5-1.3-6 0-1.7.4-4.7.9-5.9.6-1.3 1.9-3.6 2.6-4.7.8-1.3 2.6-3.4 3.4-4.2.9-1.1 2.3-3.2 3-4.2.8-1.1 2.6-3 3.4-3.8 1.1-1.1 3.2-2.8 4.2-3.4 1.3-.6 4-1.3 5.5-1.3 1.7-.2 4.2.4 5.1 1.3 1.1.8 3 2.8 3.8 3.8.9.9 2.3 3 3 4.2.9 1.1 1.7 3.4 1.7 4.7.2 1.3-.4 3.6-1.3 4.7s-2.8 3-3.8 3.8c-1.1.6-3.4 1.9-4.7 2.5-1.3.4-4.2.6-5.9.4-1.7-.2-3-1.3-2.6-2.1.4-1.1 2.1-2.3 3.4-2.5 1.3-.2 4-.4 5.5-.4 1.7 0 4.5-.6 5.5-1.3 1.3-.6 1.3-1.7 0-2.1-1.1-.6-3.4-1.9-4.7-2.5-1.1-.6-3.8-1.3-5.5-1.3-1.5-.2-4 .4-5.1 1.3-.8.9-2.8 2.5-3.8 3.4-.9.9-2.3 3.2-3 4.7-.4 1.3-.4 3.8 0 5.1.6 1.3 2.3 3.4 3.4 4.2 1.1.9 3.2 2.3 4.2 3 1.3.6 4 1.3 5.5 1.3 1.5-.2 4.2-1.1 5.5-1.7 1.3-.6 3.4-2.1 4.2-3l4.2-3.4c1.1-.9 2.8-2.8 3.4-3.8.9-1.1 2.3-3.2 3-4.2.8-1.1 1.5-3.6 1.3-5.1 0-1.7-.6-4.5-1.3-5.5-.6-1.3-2.1-3.6-3-4.7s-2.6-3-3.4-3.8c-.9-1.1-2.6-3-3.4-3.8-.8-1.1-2.8-3-3.8-3.8-.9-1.1-3.2-2.6-4.7-3-1.3-.4-3.8-.2-5.1.4-1.3.6-3.6 2.1-4.7 3-1.1.6-3.2 2.1-4.2 3l-3.8 3.8c-.9.9-2.6 2.8-3.4 3.8-.8.9-2.6 2.8-3.4 3.8l-3.4 4.2c-.6 1.1-2.1 3.2-3 4.2-.6 1.1-1.9 3.4-2.6 4.7l-2.6 5.1-1.7 5.5-1.7 6c-.2 1.5 0 4.2.4 5.5.6 1.3 1.5 4.2 1.7 6 .2 1.7.4 5.3.4 7.2v14.4c.2 1.7.9 4.7 1.3 6l2.6 5.1 2.5 5.1c.6 1.1 1.9 3.4 2.6 4.7.9 1.1 2.3 3.2 3 4.2.8 1.1 2.3 3.2 3 4.2l3.4 4.2c1.1.9 2.1 1.3 2.1.9.2-.4-.2-2.1-.9-3.4-.6-1.3-1.9-3.6-2.5-4.7-.6-1.3-1.9-3.6-2.6-4.7l-2.6-5.1c-.6-1.3-1.9-3.6-2.6-4.7l-2.6-5.1c-.4-1.5-1.1-4.5-1.3-6-.2-1.7-.4-5.1-.4-6.8.2-1.7.2-5.1 0-6.8v-14.4c.2-1.9.9-5.1 1.3-6.4l.9-3 .4 3.4c.2 1.5.8 4.5 1.3 6l1.7 5.5c.6 1.3 2.6 3.2 3.8 3.8 1.5.4 4.5.6 5.9.4 1.7-.2 5.1-.4 6.8-.4 1.9 0 5.3-.2 6.8-.4 1.7-.4 4.7-1.3 5.9-1.7l5.9-1.7c1.5-.4 4-1.5 5.1-2.1 1.3-.6 3.4-2.1 4.2-3l4.2-3.4c1.1-.9 3-2.6 3.8-3.4 1.1-.9 3-2.8 3.8-3.8s2.3-3.2 3-4.2c.8-1.1 2.3-3.2 3-4.2.9-1.1 2.3-3.2 3-4.2.8-1.3 2.1-3.8 2.6-5.1.6-1.3 1.5-4.2 1.7-5.9.2-1.7.2-4.9 0-6.4 0-1.5-.6-4.2-1.3-5.5-.4-1.3-1.7-3.6-2.5-4.7l-3.4-4.2c-.6-1.1-2.1-3.2-3-4.2l-3.4-4.2c-.6-1.1-2.3-3-3.4-3.8-.9-.9-2.6-2.8-3.4-3.8-.8-1.1-2.1-3.4-2.5-4.7-.4-1.5-2.1-3.4-3.4-3.8-1.3-.4-3.8-.2-5.1.4-1.3.4-3.8 1.5-5.1 2.1l-4.7 3c-1.1.6-3.2 2.1-4.2 3-.8.8-2.8 2.5-3.8 3.4l-4.2 3.4c-.9.9-2.6 2.8-3.4 3.8-.9.8-2.8 2.5-3.8 3.4s-3 2.8-3.8 3.8l-3.8 3.8c-.9.9-2.6 2.8-3.4 3.8-.8.9-2.5 2.8-3.4 3.8-.6 1.1-2.1 3.2-3 4.2l-3.4 4.2c-.9.9-2.6 3-3.4 4.2-.6 1.1-1.9 3.4-2.6 4.7-.4 1.3-1.1 3.8-1.3 5.1 0 1.3-.4 4-.8 5.5l-1.7 5.9-1.7 5.5c-.4 1.5-1.5 4.2-2.1 5.5l-1.7 5.5-1.7 5.5c-.4 1.5-1.1 4.7-1.3 6.4v7.2l.8 6.8c.2 1.5.9 4.5 1.3 5.9.4 1.3 1.5 3.8 2.1 5.1l2.5 5.1c.6 1.1 2.1 3.2 3 4.2s2.3 3.2 3 4.2c.8 1.1 2.5 3 3.4 3.8l2.1 1.7-.4-1.7.1-1.6zm238.4-13.6l-.4-.9v.4l.4.5zm48.5-31.9c1.9-3.4 3.2-5.9 3.8-7.2.6-1.3 1.7-3.8 2.1-5.1l1.7-6 1.7-5.5 1.7-5.5c.4-1.5.9-4.5.9-6 .2-1.7.2-5.1 0-6.8 0-1.7-.4-4.9-.9-6.4-.2-1.7-.8-4.9-1.3-6.4-.2-1.5-.9-4.2-1.3-5.5l-1.7-6c-.4-1.5-1.5-4.2-2.1-5.5-.4-1.3-1.7-3.6-2.5-4.7-.6-1.3-2.1-3.6-3-4.7l-1.3-2.1.4 3c.4 1.5 1.1 4.7 1.3 6.4.4 1.5 1.1 4.5 1.3 5.9l1.7 5.9c.4 1.5 1.1 4.5 1.3 6 .4 1.5.8 4.7.8 6.4l.9 6.8c.2 1.7.2 5.1 0 6.8-.2 1.5-.9 4.7-1.3 6.4-.2 1.5-.9 4.5-1.3 6l-1.7 5.5c-.2 1.5-.9 4.7-1.3 6.4l-.9 6.4c-.2 1.5-.2 3.6 0 4.2l1 1.3z" stroke-linejoin="round"/>
  <path fill="#FFF" stroke="#FFF" stroke-width="1.5" d="M360 316.2l4.7-1.7.8-.4.9-.9-1.7.9-1.3.4-1.7.9-1.7.8zm6.4-3.4v.4l1.3-.4 1.7-.9-1.7.4-1.3.5zm31.4-17.4l-.9-3.8.4 2.1.5 1.7z" stroke-linejoin="round"/>
  <path stroke="#000" stroke-width="1.5" d="M131.3 284.3c2.6-2.8 4-4.9 4.7-6 .9-1.3 2.6-3.4 3.4-4.2l3.4-4.2c.9-1.1 2.6-3 3.4-3.8.9-1.1 2.6-3 3.4-3.8.8-1.1 2.6-3 3.4-3.8l3.8-3.8c.9-1.1 2.6-3 3.4-3.8l3.8-3.8c.9-1.1 2.6-3 3.4-3.8 1.1-.9 3-2.6 3.8-3.4l3.8-3.8c1.1-.8 3-2.5 3.8-3.4l3.8-3.8c1.1-.9 3.2-2.3 4.2-3l4.2-3.4c1.1-.9 3.2-2.3 4.2-3 1.1-.8 3.2-2.3 4.2-3l4.7-3c1.1-.9 3.4-2.1 4.7-2.6 1.3-.6 3.8-1.7 5.1-2.1 1.5-.6 4.2-.6 5.5 0l2.6.9-1.3-1.3c-.4-.8-2.3-2.1-3.8-2.5-1.3-.4-4-.4-5.5 0-1.3.4-3.8 1.5-5.1 2.1l-5.1 2.5c-1.3.4-3.8 1.7-5.1 2.6-1.1.6-3.2 2.1-4.2 3-1.1.6-3.2 2.1-4.2 3-1.1.6-3.2 2.1-4.2 3l-4.2 3.4c-.9.9-2.8 2.6-3.8 3.4l-4.2 3.4c-.9.9-2.6 2.8-3.4 3.8l-3.8 3.8c-.8.8-2.8 2.5-3.8 3.4l-3.8 3.8c-.9.9-2.6 2.8-3.4 3.8-.8.9-2.6 2.8-3.4 3.8-.9.8-2.6 2.8-3.4 3.8l-3.4 4.2c-.9.9-2.6 2.8-3.4 3.8l-3.4 4.2c-.6 1.1-1.9 3.4-2.6 4.7-.4 1.3-1.7 3.8-2.5 5.1-.6 1.1-.9 2.6-.4 3l.7.8zm131.8-34l6.8-3.8c1.3-.8 3.8-2.1 5.1-2.5 1.3-.6 3.6-1.9 4.7-2.6l4.7-3c1.3-.6 3.8-1.5 5.1-1.7 1.5-.2 4.2.2 5.5.9 1.3.6 3.6 1.9 4.7 2.5 1.3.6 3.6 2.1 4.7 3 1.3.6 3.6 1.9 4.7 2.6l2.5 1.3-1.7-1.7c-.6-.9-2.3-2.6-3.4-3.4-1.1-.9-3.2-2.3-4.2-3-1.1-.9-3.4-2.3-4.7-3-1.3-.6-3.6-1.9-4.7-2.5-1.1-.9-3.4-1.3-4.7-.9-1.3.2-3.8 1.3-5.1 2.1-1.1.6-3.2 2.1-4.2 3-.9.8-3 2.5-4.2 3.4-1.1.6-3.4 1.9-4.7 2.6-1.1.6-3.2 2.1-4.2 3-1.1.6-3.2 2.1-4.2 3l-2.1 1.7 1.7-.4 1.9-.6z" stroke-linejoin="round"/>
  <path d="M440.7 208.7c-.6-1.3-2.1-3.6-3-4.7-.6-1.3-2.1-3.6-3-4.7-.6-1.1-2.1-3.2-3-4.2-.6-1.1-2.3-3-3.4-3.8-.8-1.1-2.6-3-3.4-3.8-.9-1.1-2.8-3-3.8-3.8-.8-1.1-2.5-3-3.4-3.8-.8-1.1-2.6-3-3.4-3.8-.9-1.1-2.8-3-3.8-3.8-.8-1.1-2.8-3-3.8-3.8-.8-.9-2.8-2.5-3.8-3.4-.8-1.1-2.8-3-3.8-3.8l-3.4-3.4c-.8-1.1-2.8-3-3.8-3.8l-4.2-3.4c-.8-.8-2.8-2.5-3.8-3.4-.8-1.1-2.8-3-3.8-3.8-.9-.8-2.8-2.5-3.8-3.4-.9-.8-2.8-2.5-3.8-3.4-1.1-.9-3-2.5-3.8-3.4l-3.4-4.2c-.6-1.3-2.1-3.6-3-4.7-.6-1.1-2.1-3.2-3-4.2-.6-1.1-2.3-3-3.4-3.8-.8-1.1-2.8-3-3.8-3.8-.8-.8-3.2-1.9-4.7-2.1-1.5-.2-4.2.2-5.5.9-1.3.4-3.8 1.5-5.1 2.1-1.1.6-3.4 1.9-4.7 2.5l-5.1 2.5c-1.3.4-4 1.5-5.5 2.1l-5.5 1.7c-1.3.4-3.8 1.5-5.1 2.1l-5.5 1.7c-1.5.4-4.2 1.5-5.5 2.1-1.3.4-3.8 1.5-5.1 2.1l-5.1 2.5c-1.1.6-3.2 2.1-4.2 3-1.1.6-3.2 2.1-4.2 3l-4.2 3.4c-.8.9-3 2.3-4.2 3s-4 1.1-5.5.8l-5.5-1.7-2.5-1.3h3.4c1.7 0 4.7-.4 6-.9 1.5-.4 2.8-1.9 2.5-3-.2-1.1.2-3.2.9-4.2.6-1.3 1.3-3.6 1.3-4.7.2-1.1 1.3-3 2.1-3.8l3.8-3.8c1.1-.8 2.3-2.1 2.5-2.5l.9-1.3-2.6 1.3c-1.3.4-3.6 1.7-4.7 2.5-1.1.6-3.4 1.9-4.7 2.5l-5.1 2.6-4.7 3c-1.1.6-3.2 2.1-4.2 3-1.1.6-3 2.3-3.8 3.4-.9.8-2.6 3-3.4 4.2-.6 1.1-.8 3.4-.4 4.7.6 1.3 2.1 3.6 3 4.7 1.1.9 3 2.6 3.8 3.4 1.1.8 3 2.5 3.8 3.4l4.2 3.4c1.3.6 3.4 2.1 4.2 3l4.2 3.4c1.3.6 3.6 2.1 4.7 3l4.2 2.5c1.3.6 3.6 2.1 4.7 3l4.2 3.4c1.1.6 1.5 2.1.9 3-.6.9-.9 3-.4 4.2.6 1.3 1.9 3.6 2.6 4.7l3.4 4.2c1.1.9 1.7 1.9 1.3 2.1-.4 0-1.9-.8-3-1.7l-4.2-3.4c-.8-.8-2.8-2.5-3.8-3.4-.9-.8-2.8-2.5-3.8-3.4-.9-1.1-2.8-3-3.8-3.8-.8-.8-2.8-2.5-3.8-3.4-1.1-.8-3.2-2.3-4.2-3-1.1-.8-3.4-2.3-4.7-3-1.1-.6-3-1.3-3.8-1.3l-1.3-.4 2.1 1.7c1.1.6 3 2.3 3.8 3.4 1.1.9 3 2.5 3.8 3.4 1.1.8 3 2.5 3.8 3.4 1.1.9 3 2.8 3.8 3.8l3.4 4.2c.9.9 2.6 2.8 3.4 3.8 1.1.8 3 2.5 3.8 3.4 1.1.8 3 2.8 3.8 3.8.8.9 2.8 2.6 3.8 3.4l5.1 2.5c1.3.4 3.8.2 5.1-.4 1.3-.6 3.4-2.1 4.2-3 1.1-.9 3.2-2.3 4.2-3 1.1-.8 3.2-.8 4.2 0 1.1.9 2.8 2.8 3.4 3.8l3.4 4.2c1.1.8 2.3 2.1 2.6 2.5l.8.9-2.5-.9c-1.3-.6-3.6-.2-4.7.9-.9.8-2.8 2.5-3.8 3.4-.9.9-3.4 1.9-5.1 2.1-1.5 0-4.2-.4-5.5-.8-1.3-.6-3.6-2.1-4.7-3-.9-.8-2.8-2.5-3.8-3.4l-4.2-3.4c-.9-.8-2.8-2.5-3.8-3.4l-4.2-3.4c-.8-.8-2.8-2.5-3.8-3.4-.8-.8-2.8-2.5-3.8-3.4-1.1-.9-3-2.5-3.8-3.4-.9-1.1-2.8-3-3.8-3.8-.9-1.1-2.8-3-3.8-3.8l-3.4-3.4c-.8-1.1-2.8-3-3.8-3.8-.9-1.1-2.8-3-3.8-3.8-.9-.8-2.3-1.7-3-1.7l-.8-.4 1.7 2.1 3.4 3.4c1.1.8 3 2.8 3.8 3.8.9 1.1 2.5 3 3.4 3.8 1.1.8 3 2.8 3.8 3.8.8 1.1 1.5 3.2 1.3 4.2-.2.9-1.1 3-1.7 4.2l-2.1 3.8c-.2.6.6 1.9 1.7 2.5l5.1 2.6c1.3.6 3.8 1.7 5.1 2.1 1.5.4 4 1.5 5.1 2.1 1.3.6 3.6 2.1 4.7 3s3 2.5 3.8 3.4l4.2 3.4c1.1.9 2.3 2.6 2.6 3.4.2.6-.9.8-2.1.4-1.3-.6-3-.6-3.4 0-.2.4.4 1.7 1.3 2.5l4.2 3.4c1.3.6 3.6 2.1 4.7 3 1.1.6 3.4 1.9 4.7 2.6l5.5 1.7 5.5 1.7 6 1.7 6.4.8 6.8.9c1.7 0 4.9.4 6.4.8s3.8 1.7 4.7 2.5l4.2 3.4c1.1.8 3.4 2.3 4.7 3 1.3.4 3.6 1.7 4.7 2.6 1.1.6 3 2.3 3.8 3.4 1.1.9 3 2.8 3.8 3.8.9.8 2.1 3 2.6 4.2.6 1.1 1.7 3.4 2.1 4.7.6 1.3 1.7 4 2.1 5.5.4 1.3 1.5 3.8 2.1 5.1.6 1.3 1.7 3.8 2.1 5.1.6 1.3 1.7 4 2.1 5.5l2.5 5.1c.6 1.1 1.7 3.6 2.1 5.1.4 1.3 1.1 4.2 1.3 6 .4 1.5.6 4.7.4 6.4 0 1.7-.2 5.1-.4 6.8l-.4 3.4-.4-1.7c0-.9-.4-3-.8-4.2-.4-1.5-1.7-3.4-2.6-3.8-.8-.4-3-.8-4.2-.8-1.1 0-3.6-.4-5.1-.9s-4.7-.6-6.4-.4c-1.5.2-4.2 1.1-5.5 1.7-1.1.6-3.4 1.9-4.7 2.5-1.3.6-3.6 2.1-4.7 3-.7.4-1.8 1-2.9 1.6-1.8 3-4.6 5.4-7.9 6.3l.2.2c0 .2-1.5.9-3 1.3-1.3.4-3.8 1.5-5.1 2.1-1.1.6-3.4 1.9-4.7 2.5s-4 1.7-5.5 2.1l-5.5 1.7-6 1.7c-1.3.4-3.4 1.7-4.2 2.5-.8.6-.4 1.7.8 2.1 1.3.4 4.2 1.1 6 1.3 1.7 0 5.1-.2 6.8-.4l6.4-.8 11.1-3.4c1.5-.6 4.2-1.7 5.5-2.1l2.5-1.3-1.3 1.3c-.4.4-2.1 1.5-3.4 2.1-1.1.6-3.4 1.9-4.7 2.5-1.3.4-4 1.5-5.5 2.1-1.3.4-3.8 1.5-5.1 2.1l-4.7 3c-1.1.6-3.2 2.1-4.2 3-.9.9-2.8 2.5-3.8 3.4-.8.8-2.8 2.5-3.8 3.4-1.1.9-3 2.8-3.8 3.8l-3.8 3.8c-.9.8-2.6 2.8-3.4 3.8-.8.8-2.3 3-3 4.2-.6 1.1 0 1.9 1.3 1.7 1.3-.2 3.4-1.3 4.2-2.1.9-1.1 2.8-3 3.8-3.8 1.1-.9 3-2.5 3.8-3.4 1.1-.8 3-2.5 3.8-3.4l4.2-3.4c1.1-.8 3-2.5 3.8-3.4 1.1-.8 3.2-2.3 4.2-3 1.3-.8 3.4-2.5 4.2-3.4 1.1-.8 3.2-2.3 4.2-3 1.3-.6 3.6-1.9 4.7-2.5l4.7-3c1.3-.6 3.6-1.9 4.7-2.5l4.7-3c1.1-.9 3.2-2.3 4.2-3 1.1-.8 3.2-2.3 4.2-3 1.3-.8 4-1.7 5.5-1.7 1.5-.2 3.8.6 4.7 1.7 1.1.8 3 2.8 3.8 3.8.8.8 2.3 3 3 4.2.6 1.1 1.7 3.6 2.1 5.1.6 1.3 1.5 3.2 1.7 3.8.2.4.2 2.1 0 3.4 0 1.1-.6 3.4-1.3 4.7-.4 1.3-1.5 3.8-2.1 5.1-.4 1.3-1.7 3.8-2.5 5.1-.6 1.1-2.1 3.2-3 4.2-.9.8-2.5 3-3.4 4.2-.6 1.1-2.1 3.2-3 4.2-.9.8-2.5 2.8-3.4 3.8-.8.9-3 2.6-4.2 3.4l-3 1.7-.4.4 1.7-2.1c.9-1.1 2.3-3.2 3-4.2.8-1.1 2.3-3.2 3-4.2.6-1.3 1.9-3.6 2.5-4.7.9-1.3 2.1-3.8 2.6-5.1.6-1.3 1.5-4 1.7-5.5.4-1.7 1.5-4.5 2.1-5.5.6-1.3 1.7-3.8 2.1-5.1.6-1.3.9-4 .4-5.5-.2-1.7-1.1-4.7-1.7-6-.4-1.3-1.5-3.8-2.1-5.1s-2.3-3.2-3.4-3.8c-1.1-.8-3.4-1.1-4.7-.4l-4.7 3c-1.1.6-3.2 2.1-4.2 3-1.1.6-3.2 2.1-4.2 3-1.1.9-3.4 2.3-4.7 3-1.1.6-3.2 2.1-4.2 3l-4.7 3c-1.1.6-3.2 2.1-4.2 3-1.1.6-3.2 2.1-4.2 3l-4.2 3.4c-.8.8-2.8 2.5-3.8 3.4-.9.9-2.8 2.6-3.8 3.4l-4.2 3.4c-.9.8-2.8 2.5-3.8 3.4-1.1.9-3 2.8-3.8 3.8-.8.8-1.1 1.9-.4 2.1s2.3.2 3.4 0c1.1-.4 3.2-1.5 4.2-2.1 1.3-.6 3.6-1.9 4.7-2.5l4.7-3c1.3-.6 3.6-2.1 4.7-3s3.2-2.3 4.2-3c1.1-.9 2.5-1.9 3-2.1l1.3-.4-2.1 1.7c-1.1.9-1.9 1.9-1.7 2.1.4.2 1.9-.4 3-1.3s3-2.6 3.8-3.4c1.1-.8 3-2.5 3.8-3.4 1.1-.8 3.2-1.1 4.2-.4 1.3.4 3.4 1.9 4.2 3 .9.8 2.6 2.8 3.4 3.8l3.4 4.2c.8.9 2.1 3 2.5 4.2.6 1.3 1.7 1.9 2.1 1.3.6-.8.6-2.8 0-3.8-.6-1.3-2.1-3.6-3-4.7-.6-1.3-2.3-3.4-3.4-4.2l-3.4-3.4c-.8-1.1-3-2.5-4.2-3-1.1-.6-1.7-1.7-1.3-2.1l3.4-2.1 4.7-3c1.1-.9 3-2.6 3.8-3.4 1.1-.8 3.2-2.3 4.2-3 1.3-.9 3.4-1.1 4.2-.4l2.1 1.3-1.7-.4c-.8-.2-2.5.6-3.4 1.7-.6 1.1-2.5 2.8-3.8 3.4-1.3.4-2.3 1.3-2.1 1.7l1.7 3c.8 1.1 2.3 3.4 3 4.7.6 1.3 1.7 3.8 2.1 5.1.6 1.3 1.1 4.2.9 6 0 1.7-.6 4.9-1.3 6.4-.4 1.3-1.5 3.8-2.1 5.1l-3 4.7c-.6 1.1-2.1 3.2-3 4.2-.8.9-2.5 2.8-3.4 3.8-.9.9-2.8 2.5-3.8 3.4-1.1.8-3 2.8-3.8 3.8-.8.8-2.5 2.8-3.4 3.8L340 405c-.9.9-2.5 2.8-3.4 3.8-.6 1.1-2.1 3.2-3 4.2-.9 1.1-2.8 3-3.8 3.8-1.1.6-3.2 2.1-4.2 3-1.1.9-3.4 2.3-4.7 3-1.1.6-3.2 2.1-4.2 3l-4.2 2.5-2.1 1.3 3-.4 5.5-1.7c1.5-.6 4.2-1.7 5.5-2.1 1.3-.6 3.6-1.9 4.7-2.5 1.3-.6 3.6-2.1 4.7-3 1.1-.8 3.2-2.3 4.2-3 1.1-.8 3-2.5 3.8-3.4 1.1-1.1 3.2-2.8 4.2-3.4 1.1-.9 3-2.5 3.8-3.4.9-1.1 2.8-3 3.8-3.8 1.1-.8 3-2.5 3.8-3.4.8-1.1 2.5-3 3.4-3.8l3.8-3.8c1.1-.8 3-2.5 3.8-3.4l3.4-4.2c.8-1.1 2.5-3 3.4-3.8.9-1.1 2.3-3.2 3-4.2l3-4.7c.9-1.1 2.1-3.4 2.5-4.7.4-1.5 1.3-3.4 1.7-3.8l1.3-1.3v2.5l.8 6c.4 1.5.9 4.5.9 6 0 1.3-.6 3.8-1.3 5.1l-3 4.7c-.6 1.1-2.1 3.2-3 4.2l-3 4.7c-.6 1.1-2.1 3.2-3 4.2L373 403c-.2.9-1.5 2.8-2.5 3.8-.8.9-2.5 2.8-3.4 3.8l-3.8 3.8c-.9.8-2.8 2.5-3.8 3.4-.8.9-2.8 2.6-3.8 3.4-.8.8-3 2.3-4.2 3-1.3.6-4 1.7-5.5 2.1-1.5.2-4.2 1.3-5.5 2.1-1.1.6-3.4 1.9-4.7 2.6-1.1.6-3.4 1.9-4.7 2.5-1.1.6-3.6 1.9-5.1 2.5l-5.5 1.7-5.5 1.7-6 1.7-5.5 1.7c-1.3.4-4.2 1.1-6 1.3l-6.8.8c-1.7 0-5.3.2-7.2.4-1.7 0-5.1-.2-6.8-.4l-6-.8-6-1.7c-1.5-.4-4.5-1.1-5.9-1.3l-6-1.7-5.5-1.7c-1.3-.6-3.8-1.7-5.1-2.1l-2.5-1.3 2.1-.4c1.1-.2 3.6-.2 5.1 0h6.8c1.9 0 5.3.2 6.8.4 1.7.2 5.1.4 6.8.4 1.9 0 5.3-.2 6.8-.4 1.7-.4 4.5-1.5 5.5-2.1 1.3-.6 3.8-1.7 5.1-2.1 1.5-.6 4.2-1.7 5.5-2.1l5.5-1.7 5.1-2.5c1.3-.6 3.8-1.7 5.1-2.1l5.1-2.5c1.3-.6 3.6-1.9 4.7-2.5 1.1-.9 2.1-2.3 2.1-3 0-.8-1.5-1.1-3-.4-1.3.4-3.8 1.5-5.1 2.1l-5.5 1.7-6 1.7c-1.3.4-3.8 1.5-5.1 2.1l-5.5 1.7-6 1.7c-1.5.2-4.7.9-6.4 1.3l-6.4.8c-1.5.2-4.7.2-6.4 0l-6.4-.8-5.9-1.7c-1.3-.4-4.2-1.1-6-1.3l-5.5-1.7c-1.3-.6-3.8-1.7-5.1-2.1-1.3-.6-4-1.7-5.5-2.1l-5.1-2.5c-1.1-.6-3.6-1.7-5.1-2.1l-5.1-2.6c-1.1-.6-3.4-1.9-4.7-2.5-1.1-.6-3.4-1.9-4.7-2.5-1.3-.6-3.6-1.9-4.7-2.5l-4.2-3.4c-1.1-.8-3-2.5-3.8-3.4-.8-1.1-2.5-3-3.4-3.8-.9-1.1-2.8-3-3.8-3.8-.8-1.1-2.8-3-3.8-3.8-.8-.8-2.5-2.8-3.4-3.8-.9-1.1-2.6-3-3.4-3.8-.8-1.1-2.5-3-3.4-3.8l-3.4-4.2-3.4-4.2c-.6-1.1-2.1-3.2-3-4.2-.6-1.3-2.1-3.6-3-4.7-.6-1.1-2.1-3.2-3-4.2-.6-1.1-1.9-3.4-2.5-4.7-.6-1.3-1.9-3.6-2.5-4.7-.6-1.3-1.9-3.2-2.6-3.8l-.8-1.7.4 3.4c.2 1.5.9 4.5 1.3 6 .4 1.3 1.5 3.8 2.1 5.1.6 1.3 1.7 3.8 2.1 5.1.6 1.3 1.7 4 2.1 5.5l2.5 5.1 2.5 4.2 3.4 4.2c.8 1.1 2.3 3.2 3 4.2l3.4 4.2c1.1.8 3 2.8 3.8 3.8.8.8 2.5 2.8 3.4 3.8.9.9 2.5 2.8 3.4 3.8.8 1.1 2.5 3 3.4 3.8 1.1.8 3 2.8 3.8 3.8 1.1.8 3 2.8 3.8 3.8l3.4 3.4 4.2 3.4c1.1.8 3 2.5 3.8 3.4l8.5 6.8c1.1.6 3.2 2.1 4.2 3 1.1.6 3.2 2.1 4.3 3 1.3.6 3.6 1.9 4.7 2.6l5.1 2.5 5.1 2.5 5.1 1.7c1.5.4 4.2 1.5 5.5 2.1 1.5.4 4 1.5 5.1 2.1 1.3.6 4 1.7 5.5 2.1 1.5.4 4 1.5 5.1 2.1 1.3.6 3.8 1.7 5.1 2.1l6 1.7 6 1.7c1.5.2 5.5.4 8.1.4h5.5c4.7-.6 7.9-1.3 9.4-1.7l5.5-1.7c1.3-.6 3.8-1.7 5.1-2.1 1.5-.6 4.2-1.7 5.5-2.1 1.3-.6 3.8-1.7 5.1-2.1 1.3-.6 3.8-1.5 5.1-1.7l5.5-1.7 6-1.7 5.5-1.7c1.3-.6 3.6-1.9 4.7-2.5 1.3-.6 3.6-1.9 4.7-2.6l4.7-3 4.2-3.4c1.1-.8 3-2.5 3.8-3.4 1.1-.9 3-2.5 3.8-3.4.9-1.1 2.8-3 3.8-3.8 1.1-.8 3-2.5 3.8-3.4.8-1.1 2.5-3 3.4-3.8l3.8-3.8c1.1-.8 2.8-2.8 3.4-3.8l3.4-4.2c.8-1.1 2.6-3 3.4-3.8.9-1.1 2.3-3.2 3-4.2.8-1.3 1.9-4 2.1-5.5.4-1.5.2-3.8-.4-4.7-.6-1.1-1.9-.6-2.6.8-.4 1.3-1.7 3.6-2.5 4.7-.6 1.1-2.3 3.2-3.4 4.2-.8.9-1.9 1.3-2.1.9 0-.4.6-1.9 1.3-3 .8-1.1 2.1-3.4 2.5-4.7.6-1.5 1.9-3.4 2.6-3.8.9-.4 1.5-2.3 1.3-3.8-.2-1.5-1.1-4.2-1.7-5.5l-.8-2.5 1.3 2.5 1.3 2.1-.4-2.5c-.2-1.3-1.1-3.6-1.7-4.7-.6-1.3-1.5-4-1.7-5.5-.2-1.5-.2-4.5 0-6l.9-6.4 1.7-6 1.7-5.5c.6-1.3 1.7-3.8 2.1-5.1.6-1.5 1.9-4 2.6-5.1.6-1.3 1.9-3.6 2.6-4.7l3.4-4.2c.9-1.1 2.3-3.2 3-4.2.8-1.1 2.3-3.4 3-4.7.6-1.3 1.9-3.6 2.5-4.7.9-1.1 2.3-3.2 3-4.2l3.4-4.2c.9-1.1 1.7-3 1.7-3.8v-2.1l-2.1 2.1c-.8.8-2.8 2.5-3.8 3.4-.8.9-2.8 2.5-3.8 3.4-.8.8-2.8 1.9-3.8 2.1-1.1.2-3.4.4-4.7.4-1.3-.2-3.4.8-4.2 2.1l-1.3 2.1-.4-2.5v-6c.2-1.5 0-4.5-.4-6s-1.5-4.2-2.1-5.5c-.4-1.3-1.5-3.8-2.1-5.1-.4-1.5-1.7-4-2.6-5.1-.6-1.1-2.1-3.2-3-4.2-.6-1.1-2.1-3.2-3-4.2-.6-1.3-2.1-3.4-3-4.2l-3.4-4.2c-.6-1.3-2.1-3.4-3-4.2l-1.7-2.1h3.4c1.7-.2 4.2-1.3 5.1-2.1.9-1.1 2.5-3 3.4-3.8 1.1-1.1 2.8-3.2 3.4-4.2.9-1.1.4-2.5-.8-3-1.3-.6-3.4-2.3-4.2-3.4s-1.7-2.8-1.7-3.4c0-.9.4-2.6.9-3.4.4-.8 1.9-.8 3 0 1.1.6 2.3 1.1 2.5.8.4-.2.2-1.7-.4-3l-1.3-2.5.9.4c.6.2 2.1 1.5 3 2.5 1.1.9 3 2.5 3.8 3.4l2.1 1.7-1.3-2.6c-.4-1.3-1.7-3.6-2.6-4.7-.8-1.1-2.5-3-3.4-3.8l-3.4-4.2c-.8-1.1-2.5-3-3.4-3.8l-3.4-4.2c-.6-1.1-2.3-3-3.4-3.8-.8-1.1-2.8-3-3.8-3.8-.8-.9-2.8-2.5-3.8-3.4-1.1-.8-3.6-2.1-5.1-2.5-1.3-.4-3.6 0-4.7.8-.8.9-1.7 2.8-1.7 3.8s1.1 1.9 2.1 1.7c1.1-.4 3 .2 3.8 1.3s2.1 3.4 2.5 4.7c.6 1.3 1.9 3.6 2.5 4.7.9 1.1 2.3 3.4 3 4.7.6 1.3 1.9 3.6 2.5 4.7.8 1.1 2.1 3.2 2.5 4.3l1.3 1.7-2.1-1.3-1.7-1.3.8 3 1.7 5.5c.4 1.5-.2 3.8-1.3 4.7-1.1.6-3.8 1.1-5.5.9-1.7-.2-4.9-.9-6.4-1.3l-2.5-.8h.4l.8-.9c.4-.4-.4-1.5-1.7-2.1-1.1-.6-3.4-1.9-4.7-2.5-1.3-.6-3.8-1.7-5.1-2.1-1.3-.6-3.4-2.1-4.2-3-.8-1.1-2.3-3.4-3-4.7-.6-1.3-1.9-3.6-2.6-4.7-.6-1.3-2.1-3.6-3-4.7s-2.8-2.8-3.8-3.4c-1.1-.8-3-2.5-3.8-3.4-.8-1.1-2.8-3-3.8-3.8-.9-1.1-2.6-3-3.4-3.8-.8-1.1-2.8-3-3.8-3.8l-4.2-3.4c-.8-.9-2.8-2.5-3.8-3.4-.8-.8-2.8-2.5-3.8-3.4l-4.2-3.4c-.9-.8-2.8-2.5-3.8-3.4-1.1-.8-3.2-2.3-4.2-3-1.1-.8-3.2-2.3-4.2-3-1.1-.9-3.4-2.3-4.7-3-1.1-.8-3.2-2.3-4.2-3-1.1-.9-3.4-2.3-4.7-3l-5.1-2.5c-1.1-.6-3.4-1.9-4.7-2.5-1.1-.6-3.4-1.9-4.7-2.5l-4.2-3.4-1.7-1.7 1.7 1.3c1.1.4 3.2 1.7 4.2 2.5 1.1.6 3.4 1.7 4.7 2.1 1.3.2 3.8-.2 5.1-.8 1.3-.6 3.4-2.1 4.2-3 1.1-.8 3.4-2.3 4.7-3 1.3-.6 3.8-1.7 5.1-2.1 1.3-.6 4-1.5 5.5-1.7l6-1.7c1.5-.4 4-1.5 5.1-2.1 1.1-.8 3.4-2.3 4.7-3 1.3-.6 3.6-1.9 4.7-2.5 1.3-.6 3.8-1.7 5.1-2.1 1.3-.6 3.8-1.7 5.1-2.1 1.5-.6 4.2-1.5 5.5-1.7 1.5-.2 4.2-1.1 5.5-1.7s3.6-1.9 4.7-2.5c1.1-.8 3.4-2.1 4.7-2.5 1.3-.6 3.8-.6 5.1 0 1.3.6 3.4 2.3 4.2 3.4.8.9 2.3 3 3 4.2.9 1.1 2.3 3.4 3 4.7.6 1.1 1.9 3.4 2.5 4.7.6 1.1 1.9 3.4 2.5 4.7l3.4 4.2c.8.8 2.8 2.5 3.8 3.4 1.1.8 3 2.5 3.8 3.4 1.1.9 3 2.5 3.8 3.4l4.2 3.4 4.2 3.4c1.1.6 3.2 2.1 4.2 3 1.1.9 3 2.6 3.8 3.4 1.1.8 3 2.8 3.8 3.8.8.8 2.8 2.5 3.8 3.4 1.1.9 3 2.6 3.8 3.4l4.2 3.4c1.1.8 3 2.5 3.8 3.4 1.1.9 3 2.5 3.8 3.4 1.1.8 3 2.8 3.8 3.8 1.1.8 3 2.5 3.8 3.4 1.1.9 3 2.8 3.8 3.8l3.4 4.2c.8.8 2.5 2.8 3.4 3.8.9.8 2.6 2.3 3.4 3l1.7 1.3-.8-2.8zm-109.6 13.6l.8 1.7.8 1.3-5.1-.4H326l-3-.9-3-.8-1.3-.9-.9-.8h3.4l3.4-.4 3 .8 3.5.4z"/>
  <path stroke="#000" stroke-width="1.5" d="M331.1 187.4c2.8-2.6 4.7-4.2 5.5-5.1l3.8-3.8c.9-1.1 2.5-3 3.4-3.8l3.4-4.2c.9-1.1 2.3-3.2 3-4.2l3.4-4.2c.9-1.1 2.3-3.2 3-4.2.9-1.1 2.3-3.2 3-4.2l2.5-5.1c.6-1.3 1.3-3.6 1.3-4.7.2-1.1-.4-2.1-1.3-2.1-.6-.2-1.9.8-2.5 2.1-.6 1.1-2.1 3.2-3 4.2-.6 1.1-2.1 3.2-3 4.2l-3.4 4.2-3.8 3.8c-.8.8-2.5 2.8-3.4 3.8-.9.9-2.5 2.8-3.4 3.8l-3.8 3.8c-.8.8-2.5 2.8-3.4 3.8-.9.8-2.8 2.6-3.8 3.4-1.1.9-3.6 1.5-5.1 1.3-1.3-.2-3.8-.9-5.1-1.3l-5.1-2.6c-1.1-.8-3.2-2.3-4.2-3-1.1-.9-3.4-2.3-4.7-3-1.1-.8-3.4-2.1-4.7-2.6l-2.5-1.3 1.7 1.7 4.2 3.4c1.1.8 3 2.5 3.8 3.4l4.2 3.4 4.2 3.4c1.1.6 3 2.1 3.8 3 1.1.9 4.5 1.9 6.8 2.1l5.2.6z" stroke-linejoin="round"/>
  <path stroke="#000" stroke-width="1.5" d="M320.9 173c3.4-1.9 5.5-3.4 6.4-4.2l3.8-3.8c1.1-.9 3-2.6 3.8-3.4 1.1-.8 3-2.6 3.8-3.4 1.1-1.1 2.6-2.3 3-2.6.6-.2.9.6.4 1.7l-.8 2.1 1.7-1.7c.9-1.1 2.6-3 3.4-3.8l3.4-4.2c.8-1.1 2.3-3.2 3-4.2.9-1.1 2.3-3.2 3-4.2.9-1.3 1.7-3.8 1.7-5.1.2-1.3-.2-3.6-.9-4.7-.6-1.3-2.1-3.6-3-4.7-.6-1.3-2.1-3.4-3-4.2-.8-1.1-3-2.5-4.2-3-1.3-.4-3.8-.2-5.1.4-1.3.4-3.8 1.5-5.1 2.1-1.1.6-1.7 1.5-1.3 1.7h4.7c1.7-.2 4.2.6 5.1 1.7 1.1.9.4 1.9-1.3 2.1h-6.8c-1.7-.2-5.3-.2-7.2 0-1.7 0-4.9.4-6.4.9-1.3.4-3.8 1.5-5.1 2.1-1.3.6-3.6 2.1-4.7 3-.9.9-2.5 2.8-3.4 3.8-.9.8-1.9 3-2.1 4.2-.2 1.3.4 3.6 1.3 4.7.9.9 2.5 2.8 3.4 3.8 1.1.8 3 2.5 3.8 3.4 1.1.9 3.4 2.1 4.7 2.6 1.3.2 3.8-.2 5.1-.9s3.4-2.1 4.2-3c1.1-.9 3-2.6 3.8-3.4l3.8-3.8c.9-1.1 2.8-2.8 3.8-3.4 1.1-.9 3.2-2.3 4.2-3s2.8-1.5 3.4-1.7l1.3-.9-1.7 2.6c-.6 1.1-2.1 3.2-3 4.2-.6 1.1-2.1 3.2-3 4.2-.9.9-2.5 2.8-3.4 3.8L336 155c-.9.9-2.8 2.6-3.8 3.4l-4.2 3.4c-.9.9-2.8 2.6-3.8 3.4-.8.8-3 2.5-4.2 3.4-1.1.6-3.8 1.3-5.5 1.3-1.5 0-4.2-.6-5.5-1.3s-3.6-1.9-4.7-2.6c-1.1-.8-3.2-2.3-4.2-3-1.1-.9-2.8-1.9-3.4-2.1l-.8-.4 3 3 5.5 4.2c1.3.6 3.6 2.1 4.7 3 1.1.6 4.5 1.5 6.8 1.7l5 .6zM295 160.2l.9.4h-.9l-.4-.4h.4z" stroke-linejoin="round"/>
  <path fill="none" d="M449.6 40.2h146.1v530.9H449.6z"/>
  <path d="M570.5 57.3c0 4.3-3 6.9-8.9 7.6H554l-1.8 1.8v.6c0 2.6 3 8.5 8.9 17.6v1.8c0 5.7-8.1 11.8-24.2 18.3h-1.8l-10-1.2-14.2 3.5c-3.5 0-5.3-4.1-5.3-12.4.5-4.3 2.7-6.5 6.5-6.5l8.9.6c12.2-.3 18.3-1.2 18.3-2.9v-.6c-11.3-7.7-19-13.4-22.9-17.1-7.8-7.8-11.8-14.1-11.8-18.8 1.4-4.3 3.8-6.5 7.1-6.5C524 47 536.4 49 548.8 49c2.7 0 6.9-.8 12.4-2.4 5.7 0 8.8 3.6 9.3 10.7zm-9.1 96.7v1.5c0 7.5-4.9 12.4-14.6 14.6l-5.2.3h-3.3c-23.8-2.3-37.6-6.3-41.4-11.9-8.1-4.9-12.1-16.9-12.2-36l3-6.4 8 2c1.8 10.4 2.4 19.2 2 26.4 2.1 4.3 7.5 6.9 16 7.6h4.7l.5-.3h.5c-6.6-9.5-10-17-10-22.5v-1.9c1.1-7.3 4.9-10.9 11.4-10.9h1.9c10.9 0 22.5 8.3 34.9 24.8 2.5 4.1 3.8 8.3 3.8 12.7zm-35.9-27.5l-.4 1.1c1.1 6.2 4.8 12.3 10.8 18.4 3.5 2.7 6 4.1 7.6 4.1h1.4V149c0-6.5-6-14-18-22.5h-1.4zm68.9 92.7c0 10.7-4.8 17.4-14.5 20.1-6.8-1.1-10.3-4.1-10.3-8.8 0-1.6 1.7-4.1 5.1-7.5l.4-2.3v-1.4c0-8.8-5-16-14.9-21.5l-4.2-.4h-5.6c-12.5 0-21.7 5.9-27.6 17.7l-.9 6.5v3.3c0 13.2 7 27.8 21 43.9l1.9 4.6c-.7 1.9-1.3 2.8-1.9 2.8h-.9c-13.3-4.8-23.3-12.9-29.9-24.3-5.3-14.2-8-23-8-26.6v-1c0-16.6 4.2-27.5 12.6-32.7 12.3-7.8 25.6-11.7 39.7-11.7h5.1c8.9 0 15.4 3.1 19.6 9.3 9 10.1 13.3 20 13.3 30zm-30.5 104c-2.2 13.6-5.9 20.4-11.2 20.4-25.4-.5-38.1-2-38.1-4.4l-1.2-1.1v-1c.7-4.1 4.2-6.2 10.4-6.2l.8-1V328l-11.6-9.3c-5.3-5.5-8-11.1-8-16.9 0-9.8 5.9-17 17.6-21.4l2.5-.3c7.2 0 17.8 8.3 31.6 24.9 4.8 6.9 7.2 13 7.2 18.2zm-39.4-28.5c-3.2 0-4.8 1.4-4.8 4.2v1c0 10.8 10.7 20.9 32 30.3h.8l.4-1c-.8-7.7-7.9-17.8-21.2-30.3-3.7-2.8-6.1-4.2-7.2-4.2zm39.8 109.9c-.8 5.5-8.8 11-24.1 16.4l-5.4.9-6.9.6c-10 1.1-16.3-1.5-18.9-7.6l-.8-2.6c.3-2.3 4.6-4.2 12.8-5.5l3-.3 12.6-1 .1-.7c-6.9-5.6-15.4-8.9-25.5-10.1-3-2.8-4.3-5.8-3.9-8.9.8-6.3 6.9-10 18.2-11.3 7-.7 10.6-1.5 10.7-2.5.3-2-8.8-3.2-27.1-3.6-3.4-1.4-5.6-5.6-6.6-12.7v-.4c.4-2 3.4-3.3 9.1-3.9 23.8 0 41.6 2.1 53.5 6.3 1.4.9 2 1.9 1.9 2.9-2.4 1.5-5.4 2.4-8.9 2.8-.2 1 1.1 3.8 3.9 8.2v.7c-.3 2.4-4.2 5-11.5 7.9-9.7 3.2-14.9 5.2-15.8 6.1 0 .4 4.8 1.6 14.4 3.8 10.5 4.5 15.3 9.4 14.6 14.6l.6-.1zm-.7 57.9v1c0 5.1-2.9 10.9-8.6 17.3-6.1 6.3-11.2 10.1-15.5 11.3-3.9-1.4-5.9-8.9-5.9-22.3 0-14.8-.9-22.7-2.8-23.7h-.4c-7.6 2.1-11.4 6.6-11.4 13.7v1.3c0 4.4 2.9 13.7 8.7 27.9v2.2l-1.4.4c-6.7-3.1-12.3-10.2-16.9-21.4-2.7-3.8-4.1-9.6-4.1-17.3 1-5.4 4.1-10.9 9.1-16.5 4.9-3.6 8.8-5.5 11.9-5.5 11.5 1.2 21.3 4.6 29.2 10.1 3 2.2 5.8 9.3 8.1 21.5zm-19.3-16.4v1.6c2.1 13.1 3.4 23.2 3.8 30.2h1.6c1.9-.9 3.9-4.3 5.8-10.1 0-6.3-3.2-13.4-9.6-21.2l-1.6-.5zm19.3 84c0 12-5.1 20.9-15.2 26.7-11.3 6.3-18.3 9.5-20.9 9.5-2.9 0-9.1-11.3-18.5-33.8-2.9-8.5-4.3-15.2-4.3-20v-.5c0-8.5 4.6-12.8 13.8-12.8v-.5c13.7 0 25.3 9.5 34.7 28.6h.9c.9 0 1.7-4.3 2.4-12.9l.4-.4h.9c2.2-.1 4.1 5.3 5.8 16.1zm-36.2-12.9h-.4c-3.9 0-6.2 2.4-6.7 7.2v3.3c0 8.3 4.3 14.5 12.9 18.6l3.3.4c9.2-2.4 13.8-5.6 13.8-9.5-3.2-6.6-10-13.1-20.5-19.5l-2.4-.5z"/>
</svg>
