<svg xmlns="http://www.w3.org/2000/svg" viewBox="0 0 612.7 612.7">
  <path fill="#D6D1B1" d="M.3.3h612v612H.3V.3z"/>
  <path fill="#190D06" stroke="#190D06" stroke-width=".7" d="M.3 612.4h161.9l5.1-6.4 5.1-6.8 22.9-43.8 22.9-44.2 11.9-31.5 11.9-31.9h-1.3l-1.3-.4-20.4-4.7-20-5.1-8.9-5.1-8.5-5.5-2.6-1.3-2.1-1.3-6.4-5.1-5.9-5.1-14.9-22.1-14.4-22.5-.4-.4v-.4l2.6-49.7 3-49.7.8-1.7 1.3-1.7v-.9l.4-.9 4.7-7.2 4.7-7.7.4-.4 5.1-5.1 5.1-5.1 3.8-2.6 4.2-3 .4-.8.4-.9 15.3-9.8 15.3-9.8.4-.4.9-.4 2.6-.4 3-.9.9.4 1.3.4-.4.4-8.9 4.7-8.5 4.2-3.8 3.4-3.8 3 20.4 22.1 20.4 22.1-2.6 7.7-2.6 7.2-28 11.1-28.1 11-2.1-.4-1.7-.9-3.8-1.7-3.8-1.7 2.6 24.6 2.6 24.2 1.7 5.1 2.1 4.7.4 1.7.8 1.3 3 4.7 3.4 4.2v1.3l.4.4h.9l1.7 3 1.7 3 3.8 4.7 4.2 4.7.9 1.3 1.3.8v.9l.4.9 7.7 7.2 8.1 6.8 12.3 6 12.3 5.5 30.2-71 30.6-71-12.8-20-12.3-20-3.8-3.8-3.8-4.2-.8-.9-.9-.8-7.2-8.1-7.2-8.1-.9-.8-.4-1.3-4.7-5.5-4.7-5.5-21.2-24.2-21.2-24.2-3.4-3.8-3.4-3.8-3-3-3-3.4-3.8-3.8-3.4-3.8-6.8-6.8-6.4-6.8-5.2-5.1-5.1-5.1-34.4-24.2L73.4 56l-10.6-3-10.2-3 2.1-1.3 2.5-1.7 96.1 84.1 96.5 84.2 2.6 3.4 3 3 5.5 6.8 5.5 6.4-3.4-9.4-3.4-9.4-3-2.1-3-2.1-7.7-8.9-7.2-8.9h-.4l-.4-.4-2.1-3-2.1-3-3-4.2-3-4.2-5.5-7.7-5.1-7.6-17.9-25.9-17.4-25.9h-.4l-3.8-3.8-3.4-4.2-.4-.4v-.4l-3.8-4.2-3.8-4.2-.9-.8-.9-1.3h-.4l-4.7-5.5-4.2-6v-.8l-1.3-2.1-1.3-2.5-4.2-5.1-3.8-5.1-5.9-8.9-5.5-8.9-.4-3.8-.4-3.8.8 1.7 1.3 1.3 43.3 58.2 43.4 58.2 2.6 3.8 2.5 3.4.9 1.7 1.3 1.3 4.3 6.8 4.7 6.8 2.1 3.4 2.1 3 1.3 1.7 1.7 1.7 2.1 3.4 2.1 3 15.7.9 16.1.9-.8-.9-.9-1.3-2.6-3.4-2.1-3.8-1.3-.9-1.3-1.3-.9-1.7-.4-2.1-.9-1.7-.9-2.1-.9-.9-.4-1.3 11-1.7 11.1-2.1-2.5-.4-2.1-.9-4.7-1.3-4.2-1.3-3.4-.8-3.4-.9-6-7.7-5.5-8.1-4.2-3.4-4.2-3.8 65.5-11.9 65.9-11.9 2.5-6.4 2.5-6.4L373.9 79l-11.5-31.9 6.8-23.4L376.4.3H.3v612.1z" stroke-linejoin="round"/>
  <path fill="#291509" stroke="#291509" stroke-width=".7" d="M162.3 612.4H320l23.4-82.9 23.8-83.3-21.2.9-21.2.8-5.9.4-5.5.4h-54l-8.5-.4-8.5-.4-11.9 31.9-11.9 31.5-22.9 44.2-22.9 43.8-5.1 6.8-5.4 6.3z" stroke-linejoin="round"/>
  <path fill="#522B0A" stroke="#522B0A" stroke-width=".7" d="M320 612.4h103.7l34.4-19.6 34.9-19.5-3.4-5.5-3.4-5.5-8.5-11.9-8.5-12.3L397 493l-72.2-45.1 21.2-.8 21.2-.9-23.8 83.3-23.4 82.9z" stroke-linejoin="round"/>
  <path fill="#754909" stroke="#754909" stroke-width=".7" d="M423.6 612.4H524l-15.7-19.6-15.3-19.5-34.9 19.5-34.5 19.6z" stroke-linejoin="round"/>
  <path fill="#AE7225" stroke="#AE7225" stroke-width=".7" d="M524 612.4h3.4l-8.9-18.3-8.9-18.3-6.4-8.9-5.9-8.9-4.7-6-4.2-6.4-14.4-19.1-14-19.5 17 24.2 17 24.2.4.8.9.9.8 1.7 1.3 1.7-3-2.5-3-2.5h-.9l-.9-.4-.8-1.3-.9-1.7-.9-1.3-.9-1.7-3.4.4-3 .4-1.7-2.5-1.7-2.5-3-3-2.5-3-.4-.8-.4-1.3-1.7-1.3-1.3-1.7-2.1-2.1-1.7-2.6-5.5-12.3-5.1-12.8-20.4-32.7-20.4-33.1-5.5-7.6-5.5-8.1.4-2.1.9-2.5 14.5-28.9 14.4-29.3v-.4l5.1-17 5.5-17.4.4-3 .4-3v-40l.4-40.4-1.3-6.8-1.3-7.2-1.7-6-1.3-5.9-.4-.8-.4-1.3-2.5-5.1-2.5-5.1-39.1-43.4-39.2-43.9-8.5.4-8.5.4L294 124l-42.1 10.2-.8.8-.9.9-1.7 3.8-1.3 3.8.8 2.1.9 1.7 4.2 3.8 4.2 3.4 5.5 8.1 6 7.7 3.4.9 3.4.8 4.2 1.3 4.7 1.3 2.1.9 2.5.4L303 184l13.6 7.6-3 3-2.6 3-22.1-8.9-21.7-8.9.4 1.3.9.9 5.1 6.4 5.5 6.4v3l-1.3-1.3-1.3-1.7.9 2.1 1.3 2.1.9 1.3.8.9.4.8.4.4-7.6 2.1-7.2 1.7-8.9-3.4-8.9-3.4-2.1-3-2.1-3.4-1.7-1.7-1.3-1.7-2.1-3-2.1-3.4-4.7-6.8-4.3-6.8-1.3-1.3-.9-1.7-2.5-3.4-2.6-3.8-43.4-58.2L134.2 43l-1.7.8-1.7.9.9 1.7 1.3 1.3 5.5 8.9 5.9 8.9 3.8 5.1 4.2 5.1 1.3 2.5 1.3 2.1 4.7 6.4 4.7 6 .9 1.3.9.8L170 99l3.8 4.2v.4l.4.4.4.4.8.4 3 3.8 3.4 3.4 17.4 25.9 17.9 25.9 5.1 7.6 5.5 7.7 3 4.2 3 4.2 2.1 3 2.1 3 .4.4h.4l7.2 8.9 7.7 8.9 3 2.1 3 2.1 1.3 1.3 1.3.8 5.1 6 5.5 5.5-2.5 3.8-2.6 3.8-.8-1.3-.4-1.3-5.5-6.4-5.5-6.8-3-3-2.6-3.4-96.5-84.2-96.1-83.6h-2.1l-1.7 1.3-1.3.9.8.4h1.3l9.3 3.4 9.8 3 34 24.7 34.4 24.2 5.1 5.1 5.1 5.1 6.4 6.8 6.8 6.8 3.4 3.8 3.8 3.8 3 3.4 3 3 3.4 3.8 3.4 3.8 21.2 24.2 21.2 24.2 4.7 5.5 4.7 5.5.4 1.3.9.8 2.1 2.6 2.6 2.1 3 3.8 3.4 3.4 1.7 2.1 1.7 2.1.9.8.8.9 3.8 4.2 3.8 3.8 9.4 3.8 9.4 3.8 1.7 3 1.7 2.6 7.2 10.6 7.6 10.6 3 4.7 3 4.2.4.9.4.4 4.7 6.8 5.1 6.4 11.9 15.7 12.3 15.3-11.5 4.2-11.5 3.8h-.4l-1.7 4.2-1.3 4.2 1.3.4h1.3l6.4 1.3 6.8 1.3-7.7 5.9-7.6 5.5-4.7 3.8-4.7 3.4.9 4.2.9 3.8 11.9-5.5 11.9-5.5 4.7-2.6 5.1-3 2.1-2.1 2.5-2.1-2.1.4-2.1.4-5.5 2.6-5.1 2.1-3 2.1-3 1.7-4.2 2.6-4.2 2.5-4.2 2.1-4.2 1.7 1.7-3.8 1.7-3.8 3.8-3 4.2-3 6.4-3 6.4-3.4 6.8-3 7.2-3 .9-.4 1.3-.9 2.6-.9 3-1.3 10.6 2.1 10.6 2.1-.4-4.7v-4.7l-12.8.9-12.3.9h-14l20.8-6.8 21.2-7.2 1.7 19.1 2.1 19.1v.4l-2.1 3.8-2.1 3.4H375l-1.3-.4v-.4l.4-3.8.8-4.2v-2.1l-.4-1.3v-1.3l-1.7 2.5-1.7 2.1v-7.2l.4-7.7-5.9-1.7-6-1.7-3.4 2.1-3 1.7-4.2 3-3.8 2.5h.9l5.1 7.6 5.1 7.6.4-10.6.4-10.6-14 34-13.6 34-.4.4-6.8 2.5-6.4 2.1-1.7.4-1.7.4-9.4 1.7-9.4 1.7-13.6 1.3-13.2 1.3-10.2-.4-10.2-.9-10.2-2.1-9.8-2.5-12.3-5.5-12.3-6-8.1-6.8-7.7-7.2-1.7 1.7-1.7 1.3 1.3 2.1 1.7 2.1 3.8 3.8 3.8 3.4v.4h.4l3.4 2.5 3.4 2.1 4.7 3 4.7 2.6v.4h.4l6.8 3.4 7.2 3 1.3.4 1.3.4 2.6.4 2.6.4 1.3.4h1.7l.9.9.9.4h51.4l34.9-14.4 34.8-14.5 2.1-2.1 2.1-2.5 11.1-14.5 11-14.5-9.8 23.4-9.4 23.4 13.2-31.4 13.2-31.9v-.4l4.2-6.4 4.7-6.8.4-3.4.4-3.8 3.8-14.5 3.8-14.4-3.8 5.9-3.4 5.5-4.2-13.6-4.2-14-15.7-37.8L362 209l-.4-1.7-.4-1.7v-1.3l.4-1.3.9 1.3 1.3 1.3 11.9 11.5 11.9 11.5v4.7l.4 4.2-9-8.5-8.9-8.5-3.4-3.4-3-3.4-14-2.1-14-2.6-3.4-2.1-3.4-2.6-3.4-6.8-3-6.8 4.2-.8 4.7-.9 13.6-22 14-22.5 2.5-2.6 2.5-3 37.4 56.1 37.4 56.1-.9 31-.4 30.6v.9l-.9 5.5-.9 5.5-1.7 5.5-1.3 5.1-1.3 5.1-1.3 5.1v.4l1.7-4.2 1.7-4.7.9-2.5.9-2.6 1.3-8.1 1.7-8.1V314l.4-1.7.4-3.4.4-3.4v-2.1l.4-7.2.4-7.6v-18.3l.9-8.1 1.3-8.1v9.4l.4 7.2v17.9l-.9 6-.4 5.9v3l.4 2.6v5.9l-.4 2.1-.4 2.1-1.3 7.2-1.3 6.8-1.7 3.8-1.7 3.8-1.3 4.2-1.3 3.8-.9 2.6-.4 2.5-16.1 29.3-16.1 28.9-2.6 3-2.1 3-29.4 14.5-29.3 14.5-2.6-.4-2.5-.4h.4l.4-.4-5.5.4-5.1.4-8.1.9-8.1.4h-35.3l-16.6-1.3-16.1-1.3h-.9l-3.8-.4-3.8-.9-3.4-.4-3.4-.4-3-.9-3-1.3h-.3l-.4-.4-5.9-2.1-5.5-2.6-3.4-.8-3.4-1.3-3.8-1.7-3.4-1.7-3.8-2.5-3.4-3-5.1-4.2-5.1-4.7-3.4-3.8-3-3.8-15.3-31.4-15.3-31.9v-14l.4-14.5 14.4-34 14.5-34.4 4.2-4.2 4.7-4.2.9-.9.9-.8 5.5-4.2 5.9-4.2 3.8-3 3.8-3.4-6 3-5.9 3-9.3 6.8-9.4 6.4v.4l-3.8 3.8-3.4 3.4-2.5 3.4-2.6 3.4-4.2 6.4-3.8 6-1.3 1.7-.8 1.7v.9l-1.7 4.2-1.3 3.8-1.7 4.2-1.7 3.8-1.3 4.7-.8 4.7v.9l-1.3 14.4-1.3 14.5.8 13.6.9 13.2 1.3 5.1 1.3 5.1 3.8 9.4 3.8 9.4 5.1 7.2 5.5 7.2 2.6 4.2 3 4.2 2.1 3 2.5 2.5.4.4.4.4 5.1 5.5 5.5 5.5 1.7 1.7 1.7 1.3 2.1 1.3 2.6 1.3 3 2.5 3.4 2.1 9.8 4.2 9.8 3.8 6.8 2.1 7.2 2.1 4.7 1.3 4.7.9 4.2.9 4.2.4 1.3.4h1.3l8.5.4 8.5.4h54l5.5-.4 5.9-.4 72.2 45.1 72.2 45.1 8.5 12.3 8.5 11.9 3.4 5.5 3.4 5.5 15.3 19.5 15.8 19.4z" stroke-linejoin="round"/>
  <path fill="#754909" stroke="#754909" stroke-width=".7" d="M527.4 612.4h85v-12.8L561 587.7l-51.4-11.9 8.9 18.3 8.9 18.3z" stroke-linejoin="round"/>
  <path fill="#522B0A" stroke="#522B0A" stroke-width=".7" d="M568.2 612.4h.4-.4zm44.2-12.8V427.1l-39.1-14-39.1-14.5-2.1.9-1.7.9-47.2 1.7-47.2 1.7-2.5-22.1-2.6-22.1-14.4 29.3-14.5 28.8 14.9 23.8 14.9 23.8 2.5 4.2 3 3.8 5.1 7.7 5.5 7.6 4.7 7.6 5.1 7.6.9 1.7 1.3 1.3 14 19.5 14.4 19.1 4.2 6.4 4.7 6 5.9 8.9 6.4 8.9 51.4 11.9 51.5 12.1z" stroke-linejoin="round"/>
  <path fill="#291509" stroke="#291509" stroke-width=".7" d="M.3 605.1v-2.5 2.5zm0-5.5v-3 3z" stroke-linejoin="round"/>
  <path fill="#D29327" stroke="#D29327" stroke-width=".7" d="M489.5 555l-1.7-3 .9 1.7.8 1.3zm7.7 5.5l-2.1-3.4-.9-.9-.4-.8h-2.5l3 2.5 2.9 2.6z" stroke-linejoin="round"/>
  <path fill="#754909" stroke="#754909" stroke-width=".7" d="M486.1 562.2l-17-24.2 8.5 12.3 8.5 11.9z" stroke-linejoin="round"/>
  <path fill="#E5A22B" stroke="#E5A22B" stroke-width=".7" d="M497.2 560.5l-2.1-3.4.8 1.7 1.3 1.7z" stroke-linejoin="round"/>
  <path fill="#754909" stroke="#754909" stroke-width=".7" d="M497.2 558l-8.9-12.3 4.2 6.4 4.7 5.9z" stroke-linejoin="round"/>
  <path fill="#D29327" stroke="#D29327" stroke-width=".7" d="M486.1 549l-9.8-12.3-1.3.4-.9.4 2.5 6.4 3 6 3-.4 3.5-.5z" stroke-linejoin="round"/>
  <path fill="#E5A22B" stroke="#E5A22B" stroke-width=".7" d="M493.8 555.4l-34-48.5-1.3-1.3-.9-1.7-5.1-7.6-4.7-7.6-5.5-7.6-5.1-7.7-3-3.8-2.5-4.2-14.9-23.8-14.8-23.9-.9 2.5-.4 2.1 5.5 8.1 5.5 7.6 20.4 33.1 20.4 32.7 1.7 3 2.1 2.5 2.6 4.2 2.5 3.8 2.5 3.4 2.6 3 1.7 6.4 1.7 6.4.4 1.3.4.8 2.5 3 3 3 1.7 2.5 1.7 2.5-3-6-2.5-6.4.9-.4 1.3-.4 4.7 6.4 5.1 6 .9 1.7.9 1.3.9 1.7.8 1.3.9.4h3.3z" stroke-linejoin="round"/>
  <path fill="#D29327" stroke="#D29327" stroke-width=".7" d="M476.4 544.8l-5.5-6 2.5 3 3 3z" stroke-linejoin="round"/>
  <path fill="#AE7225" stroke="#AE7225" stroke-width=".7" d="M476.4 536.7l-2.1.8.9-.4 1.2-.4z" stroke-linejoin="round"/>
  <path fill="#D29327" stroke="#D29327" stroke-width=".7" d="M470 536.7l-3.4-12.8-2.6-3-2.5-3.4-2.5-3.8-2.6-4.2-2.1-2.5-1.7-3 5.1 12.8 5.5 12.3 1.7 2.6 2.1 2.1 1.3 1.7 1.7 1.2z" stroke-linejoin="round"/>
  <path fill="#E5A22B" stroke="#E5A22B" stroke-width=".7" d="M463.2 529l3.8 4.7-2.1-2.1-1.7-2.6z" stroke-linejoin="round"/>
  <path fill="#AE7225" stroke="#AE7225" stroke-width=".7" d="M461.5 517.6l-5.1-8.1 2.6 4.2 2.5 3.9zm-3.9-13.6l-9.8-15.3 4.7 7.6 5.1 7.7zm-20.4-30.6l-5.5-8.1 2.5 4.2 3 3.9z" stroke-linejoin="round"/>
  <path fill="#522B0A" stroke="#522B0A" stroke-width=".7" d="M313.1 448.7h-54 54z" stroke-linejoin="round"/>
  <path fill="#291509" stroke="#291509" stroke-width=".7" d="M239.6 447.5l-8.5-1.3-4.7-.9-4.7-1.3-7.2-2.1-6.8-2.1-4.2-.9-4.2-1.3 20 5.1 20.3 4.8z" stroke-linejoin="round"/>
  <path fill="#D29327" stroke="#D29327" stroke-width=".7" d="M335.7 444.1l-5.1-.9 2.5.4 2.6.5z" stroke-linejoin="round"/>
  <path fill="#522B0A" stroke="#522B0A" stroke-width=".7" d="M231.1 446.2l-9.4-2.1 4.7 1.3 4.7.8zm73.1-1.3h-34.9 34.9z" stroke-linejoin="round"/>
  <path fill="#291509" stroke="#291509" stroke-width=".7" d="M304.2 444.9h.4l8.1-.4 8.1-.9 5.1-.4 5.5-.4 1.3-.4 1.7-.4 15.3-14 15.3-14 9.4-23.4 9.8-23.4-11 14.5L362 396l-2.1 2.5-2.1 2.1-34.8 14.5-34.9 14.4h-51.4l-5.1-1.3-4.7-1.3-1.3-.4-1.3-.4-7.2-3-6.8-3 14 5.5 14.5 5.5 7.2 3 7.2 3-8.5 2.6-8.1 2.5 16.1 1.3 16.6 1.3h34.9z" stroke-linejoin="round"/>
  <path fill="#522B0A" stroke="#522B0A" stroke-width=".7" d="M304.6 444.9l16.2-1.3-8.1.9-8.1.4z" stroke-linejoin="round"/>
  <path fill="#E5A22B" stroke="#E5A22B" stroke-width=".7" d="M335.7 444.1l59.1-28.9 2.1-3 2.6-3 16.1-28.9 16.1-29.3.4-2.5.9-2.6 1.3-3.8 1.3-4.2-.9-.4-.9-.4-1.7 4.7-1.7 4.2-.4.9v.4l-13.6 27.2-13.6 27.2-.9 1.3-.9.9-15.7 13.6-15.7 13.6-.9.4-.4.4-7.2 3-7.2 3-9.8 2.1-9.8 2.1-1.7.4-1.3.4-.4.4h-.4l2.5.4 2.7.4z" stroke-linejoin="round"/>
  <path fill="#190D06" stroke="#190D06" stroke-width=".7" d="M253.2 437.2l-14.4-5.9-14.5-5.5-14-5.5v-.4h-.4v-.4l-8.1-4.2-7.7-4.7h-.4v-.4l-3.8-3.4-3.8-3.8-.4-.4v-.9l-1.7-2.1-1.3-2.1-.9-.9-.8-1.3-4.2-4.7-4.2-4.7-6-8.9-5.9-8.9-.8-1.3-.4-1.3-.9-.4-.4-.4-3-8.5-3-8.5-1.7-4.7-1.7-4.7-.4-10.2v-10.2l2.1-19.6 2.6-19.5.8-2.1.9-2.5 1.7-6 1.7-6 3-8.5 3-8.5-14.5 34.4-14.4 34-.4 14.5v14l15.3 31.9 15.3 31.4 3 3.8 3.4 3.8 5.1 4.7 5.1 4.2 3.8 3 3.8 2.5 3.4 1.7 3.4 1.7 3.4 1.3 3.4.8 5.5 2.6 5.9 2.1.4.4h.4l2.1.4 2.1.4 4.2 1.3 4.2.9 3.8.9 3.8.4h.9l8.1-2.5 8.5-2.6z" stroke-linejoin="round"/>
  <path fill="#E5A22B" stroke="#E5A22B" stroke-width=".7" d="M221.4 440.2l-1.7-1.3-2.1-.4-2.1-.4 3 1.3 2.9.8z" stroke-linejoin="round"/>
  <path fill="#291509" stroke="#291509" stroke-width=".7" d="M235.8 442.4l-7.7-1.3 3.8.9 3.9.4z" stroke-linejoin="round"/>
  <path fill="#522B0A" stroke="#522B0A" stroke-width=".7" d="M334.4 441.9l19.6-4.2 7.2-3 7.2-3 .4-.4.9-.4 15.7-13.6 15.7-13.6.9-.9.9-1.3 8.9-16.6 9.4-16.6-14.9-8.9-14.9-8.9-13.2 31.9-13.2 31.5-15.3 14-15.3 14z" stroke-linejoin="round"/>
  <path fill="#291509" stroke="#291509" stroke-width=".7" d="M228.1 441.1l-8.5-2.1.9.9.9.4 3.4.4 3.3.4z" stroke-linejoin="round"/>
  <path fill="#522B0A" stroke="#522B0A" stroke-width=".7" d="M207.8 439.8l-19.6-8.1 5.5 3 5.5 3 4.2 1.3 4.4.8z" stroke-linejoin="round"/>
  <path fill="#291509" stroke="#291509" stroke-width=".7" d="M199.2 437.7l-11.1-6-3.4-2.1-3-2.5 8.5 5.5 9 5.1z" stroke-linejoin="round"/>
  <path fill="#D29327" stroke="#D29327" stroke-width=".7" d="M411.8 438.1l-11-15.7 5.5 8.1 5.5 7.6z" stroke-linejoin="round"/>
  <path fill="#291509" stroke="#291509" stroke-width=".7" d="M214.6 437.7l-11.5-4.7 5.5 2.6 6 2.1z" stroke-linejoin="round"/>
  <path fill="#AE7225" stroke="#AE7225" stroke-width=".7" d="M354 437.7l14.4-6-7.2 3-7.2 3z" stroke-linejoin="round"/>
  <path fill="#291509" stroke="#291509" stroke-width=".7" d="M612.4 434.7V430v4.7z" stroke-linejoin="round"/>
  <path fill="#D29327" stroke="#D29327" stroke-width=".7" d="M196.3 430.9l-6.8-3.4h-.4l3.4 1.7 3.8 1.7z" stroke-linejoin="round"/>
  <path fill="#AE7225" stroke="#AE7225" stroke-width=".7" d="M369.7 430.9l31.4-27.2-15.7 13.6-15.7 13.6z" stroke-linejoin="round"/>
  <path fill="#522B0A" stroke="#522B0A" stroke-width=".7" d="M288.1 429.6l69.7-28.9-34.8 14.5-34.9 14.4z" stroke-linejoin="round"/>
  <path fill="#291509" stroke="#291509" stroke-width=".7" d="M612.4 427.1V.3H376.5l-7.2 23.4-6.8 23.4L373.9 79l11.5 31.9-2.5 6.4-2.5 6.4-65.9 11.9-65.5 11.8-.9-1.7-.8-2.1 1.3-3.8 1.7-3.8.9-.9.8-.8 42-10.3 42.1-10.2 8.5-.4 8.5-.4 39.1 43.8 39.1 43.4 2.5 5.1 2.5 5.1.4 1.3.4.8 1.3 5.9 1.7 6 1.3 7.2 1.3 6.8-.4 40.4v40l-.4 3-.4 3-5.5 17.4-5.1 17v.4l2.6 22.1 2.5 22.1 47.2-1.7 47.2-1.7 1.7-.9 2.1-.9 39.1 14.5 39.1 14z" stroke-linejoin="round"/>
  <path fill="#522B0A" stroke="#522B0A" stroke-width=".7" d="M236.7 429.6l-1.7-1.3h-1.7l-1.3-.4-2.6-.4-2.6-.4 4.7 1.3 5.2 1.2z" stroke-linejoin="round"/>
  <path fill="#754909" stroke="#754909" stroke-width=".7" d="M232 427.9l3 .4h-1.7l-1.3-.4z" stroke-linejoin="round"/>
  <path fill="#E5A22B" stroke="#E5A22B" stroke-width=".7" d="M189.1 427.5h.4l-3.8-2.5-3.8-3 3.4 3 3.8 2.5z" stroke-linejoin="round"/>
  <path fill="#522B0A" stroke="#522B0A" stroke-width=".7" d="M266.8 425.8l-20.4-1.3 10.2.9 10.2.4zm-42.5.4l-14-6.4v.4l6.8 3 7.2 3z" stroke-linejoin="round"/>
  <path fill="#291509" stroke="#291509" stroke-width=".7" d="M266.8 425.8l26.8-2.6 9.4-1.7 9.4-1.7 1.7-.4 1.7-.4 6.4-2.1 6.8-2.5.4-.4 13.2-23.4 13.6-23.4-5.1-7.6-5.1-7.6h-1l-.4.4-2.5 2.1-2.1 2.1-5.1 3-4.7 2.6-11.9 5.5-11.9 5.5-.9-3.8-.9-4.2 4.7-3.4 4.7-3.8 7.6-5.5 7.7-5.9-6.8-1.3-6.4-1.3h-1.3l-1.3-.4 1.3-4.2 1.7-4.2h.4l11.5-3.8 11.5-4.2-12.3-15.3-11.9-15.7-5.1-6.4-4.7-6.8-.4-.4-.4-.9-3-4.2-3-4.7-7.6-10.6-7.2-10.6-1.7-2.6-1.7-3-9.4-3.8-9.4-3.8 12.3 20 12.8 20-30.6 71-30.2 71 9.8 2.5 10.2 2.1 10.2.9 10.2-.1zm-89.7-1.3l-3.4-3-4.7-3.4-4.2-3.8 5.9 5.1 6.4 5.1z" stroke-linejoin="round"/>
  <path fill="#522B0A" stroke="#522B0A" stroke-width=".7" d="M293.6 423.2l18.7-3.4-9.4 1.7-9.3 1.7zm-119.8-1.7l-10.6-11.1.9 2.1.8 1.7 4.2 3.8 4.7 3.5z" stroke-linejoin="round"/>
  <path fill="#291509" stroke="#291509" stroke-width=".7" d="M226.4 419.8l-24.6-11.5 12.3 6 12.3 5.5zm-16.5-.4l-9.4-5.5-3.4-1.7-3-1.7 7.7 4.7 8.1 4.2z" stroke-linejoin="round"/>
  <path fill="#522B0A" stroke="#522B0A" stroke-width=".7" d="M315.7 419l13.2-4.7-6.8 2.5-6.4 2.2z" stroke-linejoin="round"/>
  <path fill="#D29327" stroke="#D29327" stroke-width=".7" d="M399.4 409.2l-4.7 6 2.1-3 2.6-3zM171.6 413l-6.4-7.7 3 3.8 3.4 3.9z" stroke-linejoin="round"/>
  <path fill="#291509" stroke="#291509" stroke-width=".7" d="M164.8 414.3l-1.7-3.8-.4-.4-.4-.4-2.5-2.5-2.1-3-3-4.2-2.6-4.2-5.5-7.2-5.1-7.2-3-5.5-3-5.9 14.4 22.5 14.9 21.8z" stroke-linejoin="round"/>
  <path fill="#522B0A" stroke="#522B0A" stroke-width=".7" d="M200.5 413.9l-6.8-4.7v1.3h.4l3 1.7 3.4 1.7zm128.8 0l27.6-68-.4 10.6-.4 10.6-13.6 23.4-13.2 23.4zm35.7 0l19.1-46.8-9.8 23.4-9.3 23.4zm247.4-2.1v-5.1 5.1z" stroke-linejoin="round"/>
  <path fill="#291509" stroke="#291509" stroke-width=".7" d="M193.7 410.1v-.9h-.4v-.4l-3.8-3-3.4-3 3.8 3.8 3.8 3.5z" stroke-linejoin="round"/>
  <path fill="#522B0A" stroke="#522B0A" stroke-width=".7" d="M162.3 409.6l-4.7-5.5 2.1 3 2.6 2.5zm31-.8l-7.7-7.2v.9l.4.4 3.4 3 3.9 2.9zm-35.7-4.7l-5.5-8.5 2.6 4.2 2.9 4.3z" stroke-linejoin="round"/>
  <path fill="#AE7225" stroke="#AE7225" stroke-width=".7" d="M402.8 401.6l27.2-54.4-2.1 5.1-2.1 4.7-2.5 5.9-2.1 5.5-9.4 16.6-9 16.6z" stroke-linejoin="round"/>
  <path fill="#291509" stroke="#291509" stroke-width=".7" d="M421.1 368.4l4.7-11.5 2.1-5.5 2.6-6 1.3-5.1 1.3-5.1 1.3-5.1 1.7-5.5.9-5.5.9-5.5v-.9l.4-30.6.9-31-37.6-56.1-37.4-56.1-2.5 3-2.5 2.6L345 167l-13.6 22.1-4.7.9-4.2.8 3 6.8 3.4 6.8 3.4 2.6 3.4 2.1 14 2.6 14 2.1-.9-2.1-.8-2.7 15.3 37.8 15.7 37.8 4.2 14 4.2 13.6 3.4-5.5 3.8-5.9 2.6-3 2.5-3h3L413 300l-3.8 4.7-.9 1.7-.4 1.3-2.6 5.5-2.1 5.1-1.3 6-.9 5.5-.4 3.8-.4 3.4-4.7 6.8-4.2 6.4v.4l14.9 8.9 14.9 8.9z" stroke-linejoin="round"/>
  <path fill="#522B0A" stroke="#522B0A" stroke-width=".7" d="M384.1 367.1L362 396l11.1-14.5 11-14.4z" stroke-linejoin="round"/>
  <path fill="#754909" stroke="#754909" stroke-width=".7" d="M182.7 397.3l3.4-3-.4-.9v-.9l-2.5 1.3-2.1 1.3.8 1.3.8.9z" stroke-linejoin="round"/>
  <path fill="#AE7225" stroke="#AE7225" stroke-width=".7" d="M181 395.2l4.7-2.6-1.3-.8-.9-1.3-4.2-4.7-3.8-4.7-1.7 1.7-1.3 1.7v1.3l4.2 4.7 4.3 4.7z" stroke-linejoin="round"/>
  <path fill="#E5A22B" stroke="#E5A22B" stroke-width=".7" d="M374.4 356.1l-.4-10.6-10.6-2.1-10.6-2.1-.4 1.3-.4 1.3 3.8-.4 3.8-.9 6 1.7 5.9 1.7-.4 7.7v7.2l1.7-2.1 1.6-2.7z" stroke-linejoin="round"/>
  <path fill="#291509" stroke="#291509" stroke-width=".7" d="M183.5 390.5l-8.1-9.3 3.8 4.7 4.3 4.6z" stroke-linejoin="round"/>
  <path fill="#522B0A" stroke="#522B0A" stroke-width=".7" d="M172.5 385.8v-1.3l-1.3-1.3-1.3-1.7-4.7-6.8-4.7-6.8 5.9 8.9 6.1 9z" stroke-linejoin="round"/>
  <path fill="#754909" stroke="#754909" stroke-width=".7" d="M172.5 384.6l3-3.4-1.7-3-1.7-3-1.3 3.4-.8 3 1.3 1.7 1.2 1.3z" stroke-linejoin="round"/>
  <path fill="#AE7225" stroke="#AE7225" stroke-width=".7" d="M169.9 381.6l2.1-6.4h-.9l-.4-.4-1.7-3-1.7-3-1.7-2.1-1.3-2.1-.8-1.3-.4-1.7-2.1 2.1-1.7 1.7.4 1.3.8 1.3 4.7 6.8 4.7 6.8z" stroke-linejoin="round"/>
  <path fill="#522B0A" stroke="#522B0A" stroke-width=".7" d="M141.4 381.2l-7.6-18.7.4 3.4.8 3v.4l.4.4 3 5.9 3 5.6z" stroke-linejoin="round"/>
  <path fill="#D29327" stroke="#D29327" stroke-width=".7" d="M389.6 354.8l-3-.9 1.3.4 1.7.5z" stroke-linejoin="round"/>
  <path fill="#522B0A" stroke="#522B0A" stroke-width=".7" d="M376.1 369.7l-2.6-.4 1.3.4h1.3z" stroke-linejoin="round"/>
  <path fill="#754909" stroke="#754909" stroke-width=".7" d="M170.8 374.8v-1.3l-1.7-2.1-1.7-2.5 1.7 3 1.7 2.9z" stroke-linejoin="round"/>
  <path fill="#522B0A" stroke="#522B0A" stroke-width=".7" d="M170.8 373.5l-6.4-8.9 1.3 2.1 1.7 2.1 1.7 2.5 1.7 2.2zm135.6-.4l-1.7-8.1.9 4.2.8 3.9z" stroke-linejoin="round"/>
  <path fill="#291509" stroke="#291509" stroke-width=".7" d="M376.1 369.7l4.2-7.2v-.5l-2.1-19.1-1.7-19.1-21.2 7.2-20.8 6.8h14l12.3-.9 12.8-.9.4 11.5.8 11v2.1l-.8 4.2-.4 3.8v.4l1.3.4h1.2z" stroke-linejoin="round"/>
  <path fill="#E5A22B" stroke="#E5A22B" stroke-width=".7" d="M306.8 370.5l8.5-3.8 4.2-2.5 4.2-2.6 3-1.7 3-2.1 1.3-1.3 1.7-1.7-10.6 4.7-10.2 4.7-.9-.4-.8-.9-1.7 3.8-1.7 3.8z" stroke-linejoin="round"/>
  <path fill="#D29327" stroke="#D29327" stroke-width=".7" d="M306.8 370.5l8.5-3.8-4.2 2.1-4.3 1.7z" stroke-linejoin="round"/>
  <path fill="#522B0A" stroke="#522B0A" stroke-width=".7" d="M376.1 369.7l4.2-7.2-2.1 3.8-2.1 3.4zm-1.3-8.9l-1.3 8.1.4-3.8.9-4.3z" stroke-linejoin="round"/>
  <path fill="#291509" stroke="#291509" stroke-width=".7" d="M135.1 368.8l-1.3-6.4-1.3-5.1-1.3-5.1-.9-13.2-.8-13.6 1.3-14.5 1.3-14.4v-.9l.8-4.7 1.3-4.7 1.7-3.8 1.7-4.2 1.3-3.8 1.7-4.2v-.9l-3 49.7-2.5 49.8z" stroke-linejoin="round"/>
  <path fill="#522B0A" stroke="#522B0A" stroke-width=".7" d="M421.1 368.4l4.7-11.5-2.5 5.9-2.2 5.6zm-65-1.3l-10.2-15.3 5.1 7.6 5.1 7.7zm-196.8-1.7l3.8-3.8-2.1-4.7-1.7-5.1h-3.8l1.3 6.4 1.3 6.4.4.4.8.4z" stroke-linejoin="round"/>
  <path fill="#291509" stroke="#291509" stroke-width=".7" d="M158 364.6l-2.5-12.8-1.7-2.1-1.7-2.1 3 8.5 2.9 8.5z" stroke-linejoin="round"/>
  <path fill="#D29327" stroke="#D29327" stroke-width=".7" d="M311.9 364.2l11.9-8.5-3 .8-2.6.4-4.2 3-3.8 3 .8.9.9.4z" stroke-linejoin="round"/>
  <path fill="#AE7225" stroke="#AE7225" stroke-width=".7" d="M311.9 364.2l20.8-9.4-4.2.4h-4.2l-.4.4-5.9 4.2-6.1 4.4z" stroke-linejoin="round"/>
  <path fill="#522B0A" stroke="#522B0A" stroke-width=".7" d="M133.8 362.5l-2.6-10.2 1.3 5.1 1.3 5.1z" stroke-linejoin="round"/>
  <path fill="#D29327" stroke="#D29327" stroke-width=".7" d="M329.7 357.8l-6 3.8 3-1.7 3-2.1z" stroke-linejoin="round"/>
  <path fill="#522B0A" stroke="#522B0A" stroke-width=".7" d="M330.1 362l9.8-5.5-5.1 3-4.7 2.5zm50.2 0l-3.8-38.3 1.7 19.1 2.1 19.2z" stroke-linejoin="round"/>
  <path fill="#D29327" stroke="#D29327" stroke-width=".7" d="M371 360.8l.4-14.9-.4 7.7v7.2zm-30.6-7.7l-1.3-1.3 3-2.1 3.4-2.5-.4-1.3v-1.3l-7.2 3-6.8 3-3.4 2.5-3.4 2.1h4.2l4.2-.4-1.7 1.7-1.3 1.3 5.1-2.1 5.6-2.6z" stroke-linejoin="round"/>
  <path fill="#522B0A" stroke="#522B0A" stroke-width=".7" d="M430.9 359.1l10.6-34.4-5.5 17.4-5.1 17zm-56.1-.5l-1.3-22.5v4.7l.4 4.7v5.5l.4 5.1v1.3l.5 1.2zm-60.8-.8l15.3-11.5-7.7 5.9-7.6 5.6z" stroke-linejoin="round"/>
  <path fill="#E5A22B" stroke="#E5A22B" stroke-width=".7" d="M323.8 355.7l.4-.4 3.4-2.1 3.4-2.5-6.4 3.4-6.4 3 2.6-.4 3-1z" stroke-linejoin="round"/>
  <path fill="#522B0A" stroke="#522B0A" stroke-width=".7" d="M425.8 356.9l4.2-9.8v-.4l.4-.9v-.4l-2.6 6-2 5.5z" stroke-linejoin="round"/>
  <path fill="#E5A22B" stroke="#E5A22B" stroke-width=".7" d="M389.6 354.8v-.4l-2.1-3-1.7-3.4.4 3 .4 3 1.3.4 1.7.4z" stroke-linejoin="round"/>
  <path fill="#D29327" stroke="#D29327" stroke-width=".7" d="M389.6 354.4l-3.8-6.4 1.7 3.4 2.1 3z" stroke-linejoin="round"/>
  <path fill="#E5A22B" stroke="#E5A22B" stroke-width=".7" d="M340.4 353.1l4.2-.9.4-.4 3.8-2.5 4.2-3-.9-1.3-.4-1.3h-2.6l-2.1-.4-1.3.9-.9.4v1.3l.4 1.3-3.4 2.5-3 2.1.4.9 1.2.4z" stroke-linejoin="round"/>
  <path fill="#AE7225" stroke="#AE7225" stroke-width=".7" d="M159.3 351.8l-5.1-48.9v-3.8l.4-3.8v-.9l1.3-3.8 1.7-3.8.4-3.8.4-3.8v-.4l.4-.4 2.1-5.1 2.6-5.5 17.8 4.2 18.3 4.2-1.3 3-.8 2.6-3.8 3-3.4 3-4.7.9-4.2.9h-1.7l-1.3-.4-3-3-2.6-3 .9-2.1 1.3-2.5h.4l.4-.4 5.5.4 5.5.4h2.6l3-.4-10.2-.9-10.2-.9-.4 6-.4 5.9 2.6 1.7 3 1.7 7.2-.4 7.2-.4 5.9-3.4 5.9-3.8 1.3-2.6 1.3-3-1.3-7.2-.9-7.6-5.1-3.4-5.1-3.8h-20l-2.1-2.6-2.1-2.6 8.1-8.1 8.1-8.1h18.7l8.5 10.6 8.5 10.6.4 2.1.8 2.1.4.4h1.7l1.3-.4-2.6-8.1-2.1-8.1-7.7-6.4-7.6-6.4-14 1.3-14 1.3-.4.4-2.5 3-2.1 2.6-6.8 11.1-6.8 11-2.1 6-2.1 6-.9 2.5-.8 2.1-.4 2.5-.4 2.6-.8 11.5-.9 11.5v6l.4 5.5-.4 5.1-.4 4.7.9 2.5 1.3 2.1v6l1.7 6.8 1.7 6.4h3.6z" stroke-linejoin="round"/>
  <path fill="#522B0A" stroke="#522B0A" stroke-width=".7" d="M131.2 352.2l-1.7-26.8.8 13.6.9 13.2zm24.3-.4l-3.4-13.2v-6l-1.3-2.1-.9-2.5.4-4.7.4-5.1-.4-5.5v-6l.9-11.5.8-11.5-2.1 17-1.7 17V328l.4 10.2 1.7 4.7 1.7 4.7 1.7 2.1 1.8 2.1z" stroke-linejoin="round"/>
  <path fill="#AE7225" stroke="#AE7225" stroke-width=".7" d="M339.1 351.8l6.4-4.7-3.4 2.5-3 2.2z" stroke-linejoin="round"/>
  <path fill="#D29327" stroke="#D29327" stroke-width=".7" d="M431.7 351l1.3-5.1-.9 2.6-.4 2.5z" stroke-linejoin="round"/>
  <path fill="#522B0A" stroke="#522B0A" stroke-width=".7" d="M391.4 350.1l8.9-13.2-4.7 6.8-4.2 6.4z" stroke-linejoin="round"/>
  <path fill="#291509" stroke="#291509" stroke-width=".7" d="M152.1 347.6l-3.4-9.4 1.7 4.7 1.7 4.7z" stroke-linejoin="round"/>
  <path fill="#522B0A" stroke="#522B0A" stroke-width=".7" d="M329.3 346.3l-13.2-2.6 6.4 1.3 6.8 1.3z" stroke-linejoin="round"/>
  <path fill="#D29327" stroke="#D29327" stroke-width=".7" d="M353.1 346.3l6.4-3.8-3.8.9-3.8.4.4 1.3.8 1.2zm-1.3-2.5l.9-2.5-3 1.3-2.6.9 2.1.4h2.6z" stroke-linejoin="round"/>
  <path fill="#522B0A" stroke="#522B0A" stroke-width=".7" d="M313.6 343.3l3-8.5-1.7 4.2-1.3 4.3zm76.9-40.3l-4.7 31.9 2.1-15.7 2.6-16.2z" stroke-linejoin="round"/>
  <path fill="#291509" stroke="#291509" stroke-width=".7" d="M134.6 342.1l.4-28.5-.4 14.5v14z" stroke-linejoin="round"/>
  <path fill="#E5A22B" stroke="#E5A22B" stroke-width=".7" d="M401.1 329.7l2.1-11.5V317l3-6 3-6.4 3.8-4.7 3.8-5.1h-3l-2.5 3-2.6 3-3.8 14.4-3.8 14.5z" stroke-linejoin="round"/>
  <path fill="#754909" stroke="#754909" stroke-width=".7" d="M152.1 338.7v-6 6z" stroke-linejoin="round"/>
  <path fill="#291509" stroke="#291509" stroke-width=".7" d="M148.7 338.2l-.4-20.4V328l.4 10.2z" stroke-linejoin="round"/>
  <path fill="#522B0A" stroke="#522B0A" stroke-width=".7" d="M334.4 337.8h14-14z" stroke-linejoin="round"/>
  <path fill="#D29327" stroke="#D29327" stroke-width=".7" d="M435.6 337.8l3.4-7.6-1.7.8-1.7.9-.9 2.6-.9 2.5.9.4.9.4z" stroke-linejoin="round"/>
  <path fill="#291509" stroke="#291509" stroke-width=".7" d="M390.5 303l-5.1-22.5-2.1-5.5-1.7-5.9-3-5.5-3-6-10.6-5.9-10.2-5.9-10.2-.4-9.8-.4 4.7 40 5.1 39.5 14-3 14.5-3 3.8 2.1 4.2 2.1 2.1 5.5 2.1 5.5v.9l.4.4 2.1-15.7 2.7-16.3z" stroke-linejoin="round"/>
  <path fill="#E5A22B" stroke="#E5A22B" stroke-width=".7" d="M382.9 329.7l-.9 1.7.4-.9.5-.8z" stroke-linejoin="round"/>
  <path fill="#522B0A" stroke="#522B0A" stroke-width=".7" d="M339.9 326.8l-23 8.1 11.5-3.8 11.5-4.3zm93.1 8.4l3-10.6-1.7 5.5-1.3 5.1z" stroke-linejoin="round"/>
  <path fill="#754909" stroke="#754909" stroke-width=".7" d="M152.1 332.7L150 328l.9 2.5 1.2 2.2z" stroke-linejoin="round"/>
  <path fill="#522B0A" stroke="#522B0A" stroke-width=".7" d="M385.4 333.6l-4.2-11.1 2.1 5.5 2.1 5.6z" stroke-linejoin="round"/>
  <path fill="#E5A22B" stroke="#E5A22B" stroke-width=".7" d="M439 330.2l2.5-14h-1.7l-1.3-.4-1.7 8.1-1.3 8.1 1.7-.9 1.8-.9z" stroke-linejoin="round"/>
  <path fill="#D29327" stroke="#D29327" stroke-width=".7" d="M382 331.4l.9-1.7-.4.9-.5.8z" stroke-linejoin="round"/>
  <path fill="#522B0A" stroke="#522B0A" stroke-width=".7" d="M401.6 312.3l-8.5-27.6 4.2 14 4.3 13.6zm-28.5 5.9l-28.5 6 14-3 14.5-3zm-243.5 7.3l2.6-28.9-1.3 14.4-1.3 14.5zm306.4-.9l1.7-11-.9 5.5-.8 5.5zm-110.5-7.2l-3.4.4h1.7l1.7-.4z" stroke-linejoin="round"/>
  <path fill="#AE7225" stroke="#AE7225" stroke-width=".7" d="M325.5 317.4l-49.3-67.1.9 4.2.9 3.8.9 1.3.9.9 4.7 6.4 4.7 6.4 5.1 8.1 5.5 7.7 3.8 5.1 3.8 5.1.4.9.4.9 2.5 3.4 3 3 1.3 1.7 1.3 1.7 3 3.8 3 3.4h1.7l1.5-.7z" stroke-linejoin="round"/>
  <path fill="#522B0A" stroke="#522B0A" stroke-width=".7" d="M442.4 318.7l.4-80.3-.4 40.4v39.9z" stroke-linejoin="round"/>
  <path fill="#754909" stroke="#754909" stroke-width=".7" d="M150.8 318.2l-.4-11.5v6l.4 5.5z" stroke-linejoin="round"/>
  <path fill="#522B0A" stroke="#522B0A" stroke-width=".7" d="M403.2 318.2l4.7-10.6-2.6 4.7-2.1 4.7v1.2z" stroke-linejoin="round"/>
  <path fill="#291509" stroke="#291509" stroke-width=".7" d="M148.2 317.8l3.8-34 .4-2.6.4-2.5-2.6 19.5-2 19.6z" stroke-linejoin="round"/>
  <path fill="#522B0A" stroke="#522B0A" stroke-width=".7" d="M322.1 317.8l-6-7.2 3 3.8 3 3.4z" stroke-linejoin="round"/>
  <path fill="#AE7225" stroke="#AE7225" stroke-width=".7" d="M403.2 317l4.7-9.4.4-1.3.9-1.7-3 6.4-3 6z" stroke-linejoin="round"/>
  <path fill="#D29327" stroke="#D29327" stroke-width=".7" d="M441.5 316.1l.9-4.2-1.7.4H439l-.4 1.7v1.7l1.3.4h1.6z" stroke-linejoin="round"/>
  <path fill="#E5A22B" stroke="#E5A22B" stroke-width=".7" d="M442.4 311.9V306h-1.3l-1.3-.4-.4 3.4-.4 3.4h1.7l1.7-.5z" stroke-linejoin="round"/>
  <path fill="#522B0A" stroke="#522B0A" stroke-width=".7" d="M437.7 312.7l1.3-61.6-.9 31-.4 30.6z" stroke-linejoin="round"/>
  <path fill="#291509" stroke="#291509" stroke-width=".7" d="M221.8 285.5l-2.1 2.1-14 9.4-14 9.4h-3.8l-2.5.9-2.6.4h-17l28.1-11 27.9-11.2z" stroke-linejoin="round"/>
  <path fill="#522B0A" stroke="#522B0A" stroke-width=".7" d="M182.7 307.6l2.6-.4 2.5-.9h3.8l14-9.4 14-9.4-1.3 1.3-.9.8-3.4 3-3 3-.8 1.3-.9 1.3-1.3-.8-.9-.9.9-.9.8-.9v-.4h-.8l-1.3.9-.8.8-21.2 1.3-21.2.8-2.1-5.1-2.1-5.1-.4-4.2-.4-4.7-.5 4-.4 3.8-1.7 3.8-1.3 3.8v.9l3.4 5.5 3.8 5.5 1.7.9 2.1.4h17.1z" stroke-linejoin="round"/>
  <path fill="#754909" stroke="#754909" stroke-width=".7" d="M162.3 298.3l-.8 2.1.4-.8.4-1.3z" stroke-linejoin="round"/>
  <path fill="#522B0A" stroke="#522B0A" stroke-width=".7" d="M313.6 307.2l-5.5-6.4 2.5 3.4 3 3z" stroke-linejoin="round"/>
  <path fill="#291509" stroke="#291509" stroke-width=".7" d="M161.9 306.4l-7.2-11-.4 3.8v3.8l3.8 1.7 3.8 1.7z" stroke-linejoin="round"/>
  <path fill="#AE7225" stroke="#AE7225" stroke-width=".7" d="M187.8 306.4h3.8-3.8z" stroke-linejoin="round"/>
  <path fill="#D29327" stroke="#D29327" stroke-width=".7" d="M442.4 305.9l-.4-5.5-1.3 1.7-.8 1.3v2.1l1.3.4h1.2z" stroke-linejoin="round"/>
  <path fill="#291509" stroke="#291509" stroke-width=".7" d="M206.1 296.1l-42.5 2.1 21.2-.8 21.3-1.3z" stroke-linejoin="round"/>
  <path fill="#190D06" stroke="#190D06" stroke-width=".7" d="M206.1 296.1l2.1-1.7 4.2-5.1 4.2-5.5v-1.3l2.1-13.2 2.1-13.2-8.5-10.6-8.5-10.6h-18.7L177 243l-8.1 8.1 5.1 1.3 5.5 1.3h1.3l11 4.7 11.5 4.2-.4 10.6v10.6l-5.9 3.8-5.9 3.4-7.2.4-7.2.4-3-1.7-2.6-1.7 7.7-4.7 8.1-5.1-5.5-.4-5.5-.4 8.9 3.4 8.9 3.4 3-4.2 3-4.2-18.3-4.2-17.8-4.2-2.6 5.5-2.1 5.1-.4.4v.4l.4 4.7.4 4.2 2.1 5.1 2.1 5.1 21.2-.8 21.4-1.4z" stroke-linejoin="round"/>
  <path fill="#E5A22B" stroke="#E5A22B" stroke-width=".7" d="M441.9 300.4l1.3-11.9h-2.6l-.4 7.6-.4 7.2.8-1.3 1.3-1.6z" stroke-linejoin="round"/>
  <path fill="#522B0A" stroke="#522B0A" stroke-width=".7" d="M390.5 303l-5.1-22.5L388 292l2.5 11z" stroke-linejoin="round"/>
  <path fill="#754909" stroke="#754909" stroke-width=".7" d="M209.4 298.3l-2.1-1.7.9.9 1.2.8z" stroke-linejoin="round"/>
  <path fill="#AE7225" stroke="#AE7225" stroke-width=".7" d="M161.4 300.4l.8-2.1-.4 1.3-.4.8z" stroke-linejoin="round"/>
  <path fill="#522B0A" stroke="#522B0A" stroke-width=".7" d="M307.2 299.1l-7.6-10.2 3.8 5.1 3.8 5.1z" stroke-linejoin="round"/>
  <path fill="#291509" stroke="#291509" stroke-width=".7" d="M163.6 298.3l-4.2-10.2 2.1 5.1 2.1 5.1z" stroke-linejoin="round"/>
  <path fill="#AE7225" stroke="#AE7225" stroke-width=".7" d="M209.4 298.3l1.7-2.5-1.3-.4-.9-.4-.8.9-.9.9.9.9 1.3.6z" stroke-linejoin="round"/>
  <path fill="#754909" stroke="#754909" stroke-width=".7" d="M157.6 286.8l-3 7.6 1.3-3.8 1.7-3.8z" stroke-linejoin="round"/>
  <path fill="#522B0A" stroke="#522B0A" stroke-width=".7" d="M132.1 295.7l2.1-9.4-1.3 4.7-.8 4.7z" stroke-linejoin="round"/>
  <path fill="#754909" stroke="#754909" stroke-width=".7" d="M211.1 295.7l6.4-6-.8-.8-.9-1.3-3.4 3.4-3.4 3.4v.4l.9.4 1.2.5z" stroke-linejoin="round"/>
  <path fill="#522B0A" stroke="#522B0A" stroke-width=".7" d="M315.7 295.7l-9.8-13.2 4.7 6.8 5.1 6.4z" stroke-linejoin="round"/>
  <path fill="#AE7225" stroke="#AE7225" stroke-width=".7" d="M413.9 294.9h3-3z" stroke-linejoin="round"/>
  <path fill="#291509" stroke="#291509" stroke-width=".7" d="M208.2 294.5h.8l3.4-3.4 3.4-3.4.4-1.7.4-2.1-4.2 5.5-4.2 5.1z" stroke-linejoin="round"/>
  <path fill="#522B0A" stroke="#522B0A" stroke-width=".7" d="M191.2 291.1l-14.4.8 7.2-.4 7.2-.4z" stroke-linejoin="round"/>
  <path fill="#291509" stroke="#291509" stroke-width=".7" d="M190.3 287.6l3.4-3-8.9-3.4-8.9-3.4-.4.4h-.5l3 5.5 3.4 5.5 4.2-.9 4.7-.7z" stroke-linejoin="round"/>
  <path fill="#754909" stroke="#754909" stroke-width=".7" d="M178.4 288.9l-5.5-6 2.6 3 2.9 3z" stroke-linejoin="round"/>
  <path fill="#AE7225" stroke="#AE7225" stroke-width=".7" d="M217.5 289.8l2.1-2.1 1.3-4.7 1.3-5.1-.4-2.1v-2.5l-.8 3-.9 2.5-1.7 2.5-1.7 2.1v.4l-.4 2.1-.4 1.7.9 1.3.7.9z" stroke-linejoin="round"/>
  <path fill="#291509" stroke="#291509" stroke-width=".7" d="M171.2 288.5l.9-11.9 10.2.9 10.2.9-3 .4h-2.6l-8.1 5.1-7.6 4.6z" stroke-linejoin="round"/>
  <path fill="#522B0A" stroke="#522B0A" stroke-width=".7" d="M181.4 289.4l-6.4-11-1.3 2.5-.9 2.1 2.6 3 3 3 1.3.4h1.7z" stroke-linejoin="round"/>
  <path fill="#D29327" stroke="#D29327" stroke-width=".7" d="M440.6 288.5h2.6v-17.4l-1.3 4.2-1.3 3.8v9.4z" stroke-linejoin="round"/>
  <path fill="#522B0A" stroke="#522B0A" stroke-width=".7" d="M190.3 287.6l7.2-5.9-2.1 1.7-1.7 1.3-1.7 1.7-1.7 1.2zm29.3 0l2.1-2.1 2.1-7.2 2.6-7.7h-.4v.4l-2.1 3.4-1.7 3.4-1.3 5.1-1.3 4.7z" stroke-linejoin="round"/>
  <path fill="#291509" stroke="#291509" stroke-width=".7" d="M221.8 285.5l5.1-14.9h-.4l-2.6 7.7-2.1 7.2zm-28.1-.8l3.8-3 .8-2.6 1.3-3-3 4.2-2.9 4.4zm9.8-22.1v.9l.9 7.6 1.3 7.2-1.3 3-1.3 2.6v-10.6l.4-10.7z" stroke-linejoin="round"/>
  <path fill="#522B0A" stroke="#522B0A" stroke-width=".7" d="M216.7 283.4l3.4-4.7-1.7 2.1-1.7 1.7v.9z" stroke-linejoin="round"/>
  <path fill="#291509" stroke="#291509" stroke-width=".7" d="M216.7 282.6l3.4-3.8.9-2.5.8-3V266l.4-5.5-.8-2.1-.4-2.1-2.1 13.2-2.2 13.1z" stroke-linejoin="round"/>
  <path fill="#522B0A" stroke="#522B0A" stroke-width=".7" d="M305.1 281.3l-6-8.9 3 4.7 3 4.2z" stroke-linejoin="round"/>
  <path fill="#E5A22B" stroke="#E5A22B" stroke-width=".7" d="M443.2 271.1v-.4h-1.3l-1.3-.4v8.9l1.3-3.8 1.3-4.3z" stroke-linejoin="round"/>
  <path fill="#522B0A" stroke="#522B0A" stroke-width=".7" d="M137.6 278.3l3-8.1-1.7 4.2-1.3 3.9z" stroke-linejoin="round"/>
  <path fill="#291509" stroke="#291509" stroke-width=".7" d="M158.9 278.3l4.7-10.6-2.6 5.5-2.1 5.1z" stroke-linejoin="round"/>
  <path fill="#522B0A" stroke="#522B0A" stroke-width=".7" d="M192.4 278.3l-20.4-1.7 10.2.9 10.2.8zm13.2 0l-2.1-14.9.9 7.6 1.2 7.3z" stroke-linejoin="round"/>
  <path fill="#754909" stroke="#754909" stroke-width=".7" d="M222.2 277.9l3.8-6.8-1.3-.9-.9-1.3-1.3 1.3-.9.9v4.7l.6 2.1z" stroke-linejoin="round"/>
  <path fill="#522B0A" stroke="#522B0A" stroke-width=".7" d="M154.6 274.1l4.2-11.9h-.8l-1.7 6-1.7 5.9zm134.3-.9l-9.4-12.8 4.7 6.4 4.7 6.4z" stroke-linejoin="round"/>
  <path fill="#AE7225" stroke="#AE7225" stroke-width=".7" d="M226 271.1v-.4l-1.7-1.7-1.7-1.7.4.9.8.9.9 1.3 1.3.7z" stroke-linejoin="round"/>
  <path fill="#522B0A" stroke="#522B0A" stroke-width=".7" d="M221.8 271.1l2.1-2.1-.8-.9-.4-.9v-3l.4-3.4h-.4l-.4-.4-.4 5.5v5.2z" stroke-linejoin="round"/>
  <path fill="#754909" stroke="#754909" stroke-width=".7" d="M226 270.6h.4l-.4-5.1-.4-5.1-1.3.4H223l-.4 3.4v3l1.7 1.7 1.7 1.7z" stroke-linejoin="round"/>
  <path fill="#522B0A" stroke="#522B0A" stroke-width=".7" d="M226.4 270.6h.4l-3-13.2-3-13.2 2.1 8.1 2.6 8.1.4 5.1.5 5.1z" stroke-linejoin="round"/>
  <path fill="#291509" stroke="#291509" stroke-width=".7" d="M226.9 270.6l-40.8-44.2-5.9 4.2-5.5 4.2h1.3l1.3-.4.4-.4 14-1.3 14-1.3 7.6 6.4 7.7 6.4 3 13.2 2.9 13.2z" stroke-linejoin="round"/>
  <path fill="#D29327" stroke="#D29327" stroke-width=".7" d="M443.2 270.6l-.4-14.4v-2.1l-1.3 8.1-.9 8.1 1.3.4h1.3z" stroke-linejoin="round"/>
  <path fill="#522B0A" stroke="#522B0A" stroke-width=".7" d="M381.6 269l-6-11.5 3 6 3 5.5zm-238.9-3l8.1-12.3-3.8 5.5-3.8 5.1-.4.9v.8z" stroke-linejoin="round"/>
  <path fill="#291509" stroke="#291509" stroke-width=".7" d="M143.1 264.3l7.7-10.6.8-2.1.9-2.1-4.7 7.7-4.7 7.1z" stroke-linejoin="round"/>
  <path fill="#522B0A" stroke="#522B0A" stroke-width=".7" d="M203.5 263.4v-.9l-5.1-3-5.1-3.4 5.1 3.8 5.1 3.5z" stroke-linejoin="round"/>
  <path fill="#291509" stroke="#291509" stroke-width=".7" d="M203.5 262.6l-22.5-8.9 5.9 1.3 6.4 1.3 5.1 3.4 5.1 2.9zm-45.5-.5h.9l6.8-11 6.8-11.1v-1.7l.4-1.7-4.7 4.2-4.2 4.2-3 8.5-3 8.6zm15.3-5.9l6.4-2.6-5.5-1.3-5.1-1.3 2.1 2.6 2.1 2.6z" stroke-linejoin="round"/>
  <path fill="#E5A22B" stroke="#E5A22B" stroke-width=".7" d="M442.8 256.2v-2.1 2.1z" stroke-linejoin="round"/>
  <path fill="#522B0A" stroke="#522B0A" stroke-width=".7" d="M277.9 258.3l-1.7-8.1.9 4.2.8 3.9zm-104.6-2.1h20l-6.4-1.3-5.9-1.3h-1.3l-3.4 1.3-3 1.3zm-22.5-2.5l5.1-6.8-1.7 1.3-1.3.9-.4.4-.9 2.1-.8 2.1zm133.4-2.6l-3.4-5.5 1.7 3 1.7 2.5z" stroke-linejoin="round"/>
  <path fill="#291509" stroke="#291509" stroke-width=".7" d="M152.9 249l3-2.1 3.4-3.4 3.8-3.8v-.8L158 244l-5.1 5z" stroke-linejoin="round"/>
  <path fill="#522B0A" stroke="#522B0A" stroke-width=".7" d="M155.9 246.9l7.2-7.2-3.8 3.8-3.4 3.4z" stroke-linejoin="round"/>
  <path fill="#E5A22B" stroke="#E5A22B" stroke-width=".7" d="M376.5 244.7l-2.1-1.7-9.8-.4-9.8-.9h-7.2l1.3 1.3 1.3.8 13.2.4 13.1.5z" stroke-linejoin="round"/>
  <path fill="#522B0A" stroke="#522B0A" stroke-width=".7" d="M354.8 245.6l-20-.9 9.8.4 10.2.5z" stroke-linejoin="round"/>
  <path fill="#D29327" stroke="#D29327" stroke-width=".7" d="M376.5 244.7l-2.1-1.7.9.8 1.2.9zm-41.7-1.2l15.3.4-1.3-.8-1.3-1.3-6 .4H336l-.9.9-.3.4zm-7.6-.5l1.3-1.7-5.1-.4-5.1-.9v2.1l4.2.4 4.7.5z" stroke-linejoin="round"/>
  <path fill="#E5A22B" stroke="#E5A22B" stroke-width=".7" d="M327.2 243l7.6.4.4-.4.9-.9-3.8-.4-3.8-.4-.9.8-.4.9z" stroke-linejoin="round"/>
  <path fill="#AE7225" stroke="#AE7225" stroke-width=".7" d="M347.6 241.8h6.4l-3.4-.4-3.4-.9-14.4-.4-14.5-.8v.8l5.1.9 5.1.4 3.8.4 3.8.4h5.5l6-.4z" stroke-linejoin="round"/>
  <path fill="#D29327" stroke="#D29327" stroke-width=".7" d="M293.2 239.2l-1.3-.9.4.4.9.5z" stroke-linejoin="round"/>
  <path fill="#E5A22B" stroke="#E5A22B" stroke-width=".7" d="M318.2 242.2v-3l-4.2-.4-4.2-.4 4.2 2.1 4.2 1.7z" stroke-linejoin="round"/>
  <path fill="#291509" stroke="#291509" stroke-width=".7" d="M288.5 235.8l.9-3.4.9-.4.9-.4-3.8-1.3-3.4-1.7-2.6 2.5-2.1 2.1-2.3 1.8-1.7 1.7 6.4-.4 6.8-.5z" stroke-linejoin="round"/>
  <path fill="#522B0A" stroke="#522B0A" stroke-width=".7" d="M354 241.8h9.8l-8.5-.4-8.1-.9 3.4.9 3.4.4z" stroke-linejoin="round"/>
  <path fill="#291509" stroke="#291509" stroke-width=".7" d="M363.7 241.8l-1.3-3.4-6-2.1-5.9-2.6-37.8-10.6-37.8-11.1 9.8 10.6 9.8 10.6 7.6 2.6 7.6 2.6 4.2.4 4.2.4 14.5.8 14.4.4 8.1.9 8.6.5zm24.3-4.3l-.4-8.9-11.9-11.5-11.9-11.5 3 7.7 3.4 7.2 8.9 8.5 8.9 8.5z" stroke-linejoin="round"/>
  <path fill="#522B0A" stroke="#522B0A" stroke-width=".7" d="M172.5 240.1l4.7-5.5-1.3.4h-1.3l-.9.8-.9.9-.4 1.7v1.7z" stroke-linejoin="round"/>
  <path fill="#E5A22B" stroke="#E5A22B" stroke-width=".7" d="M289.4 232.4l-.9 3.4 1.7 1.3 1.7 1.3.4.4.9.4-2.1-3.4-1.7-3.4z" stroke-linejoin="round"/>
  <path fill="#522B0A" stroke="#522B0A" stroke-width=".7" d="M163.1 238.8v.4l9.4-6.4 9.3-6.8-5.1 3-4.7 2.6-.4.9-.4.8-4.2 3-3.9 2.5z" stroke-linejoin="round"/>
  <path fill="#291509" stroke="#291509" stroke-width=".7" d="M163.1 238.8l8.1-5.5-4.2 3-3.9 2.5z" stroke-linejoin="round"/>
  <path fill="#522B0A" stroke="#522B0A" stroke-width=".7" d="M362.5 238.4l-11.9-4.7 5.9 2.6 6 2.1z" stroke-linejoin="round"/>
  <path fill="#291509" stroke="#291509" stroke-width=".7" d="M262.1 237.9l-7.6-8.1 3.8 4.2 3.8 3.9z" stroke-linejoin="round"/>
  <path fill="#522B0A" stroke="#522B0A" stroke-width=".7" d="M267.7 237.5l5.1-7.6-2.5 3.8-2.6 3.8z" stroke-linejoin="round"/>
  <path fill="#291509" stroke="#291509" stroke-width=".7" d="M267.7 237.5l5.1-7.6-5.5-5.5-5.1-6-1.3-.8-1.3-1.3 3.4 9.4 3.4 9.4.4 1.3.9 1.1z" stroke-linejoin="round"/>
  <path fill="#522B0A" stroke="#522B0A" stroke-width=".7" d="M388 237.5l-.4-8.9v4.7l.4 4.2zm-108.9-4.3l-3.8 3.4 1.7-1.7 2.1-1.7z" stroke-linejoin="round"/>
  <path fill="#291509" stroke="#291509" stroke-width=".7" d="M203.9 235h-18.7 18.7z" stroke-linejoin="round"/>
  <path fill="#190D06" stroke="#190D06" stroke-width=".7" d="M274.9 212l-3.4-1.3h-2.1l-3 .9-2.5.8 2.1 1.7 2.5 1.3 6.8 3 7.2 3h1.3v3.4l.4 3.4-.4.4 3.4 1.7 3.8 1.3 1.7.9 1.7.8-9.8-10.6-9.7-10.7z" stroke-linejoin="round"/>
  <path fill="#522B0A" stroke="#522B0A" stroke-width=".7" d="M177.6 234.1l28.1-2.6-14 1.3-14.1 1.3z" stroke-linejoin="round"/>
  <path fill="#E5A22B" stroke="#E5A22B" stroke-width=".7" d="M353.5 232.8l-1.7-1.7.9.9.8.8z" stroke-linejoin="round"/>
  <path fill="#D29327" stroke="#D29327" stroke-width=".7" d="M353.5 232.8l-1.7-1.7.9.9.8.8z" stroke-linejoin="round"/>
  <path fill="#E5A22B" stroke="#E5A22B" stroke-width=".7" d="M439.4 228.6l-1.7-.4.8.4h.9z" stroke-linejoin="round"/>
  <path fill="#291509" stroke="#291509" stroke-width=".7" d="M172.1 231.6l9.8-5.5 5.9-3 6-3 8.5-4.2 8.9-4.7-.8-.4-.9-.9-3 .9-2.6.4-.9.4-.4.4-15.3 9.8-15.2 9.8z" stroke-linejoin="round"/>
  <path fill="#522B0A" stroke="#522B0A" stroke-width=".7" d="M272.8 229.9l-10.6-11.5 5.1 6 5.5 5.5z" stroke-linejoin="round"/>
  <path fill="#291509" stroke="#291509" stroke-width=".7" d="M274 223.1l.4 4.2-.4-2.1v-2.1z" stroke-linejoin="round"/>
  <path fill="#E5A22B" stroke="#E5A22B" stroke-width=".7" d="M370.1 220.5l-6.4-14.9-1.3-1.3-.9-1.3-.4 1.3v1.3l.4 1.7.4 1.7.9 2.6.9 2.1 3 3.4 3.4 3.4z" stroke-linejoin="round"/>
  <path fill="#D29327" stroke="#D29327" stroke-width=".7" d="M439.4 228.6l-1.7-.4.8.4h.9z" stroke-linejoin="round"/>
  <path fill="#291509" stroke="#291509" stroke-width=".7" d="M252.8 228.2l-3.4-4.2-3.4-3.4-3-3.8-2.6-2.1-2.1-2.6 7.2 8.1 7.3 8zm31.4 0l-.4-6.8v3.4l.4 3.4z" stroke-linejoin="round"/>
  <path fill="#522B0A" stroke="#522B0A" stroke-width=".7" d="M329.7 219.7l5.5 7.6-3-3.8-2.5-3.8zm-55.2 7.6l-.4-4.2v2.1l.4 2.1z" stroke-linejoin="round"/>
  <path fill="#291509" stroke="#291509" stroke-width=".7" d="M335.2 227.3l-5.5-7.6-3.4.4-3 .4-2.5.4-2.6.4.4.9.8.4 7.2 2.1 7.6 2.1.4.4h.6z" stroke-linejoin="round"/>
  <path fill="#522B0A" stroke="#522B0A" stroke-width=".7" d="M334.4 226.9l-14.9-4.2 7.2 2.1 7.7 2.1z" stroke-linejoin="round"/>
  <path fill="#D29327" stroke="#D29327" stroke-width=".7" d="M313.6 221.4l-3.4 2.6 1.7-1.3 1.7-1.3z" stroke-linejoin="round"/>
  <path fill="#522B0A" stroke="#522B0A" stroke-width=".7" d="M440.2 224.3l-3-11.9 1.3 5.9 1.7 6zm-190.8-.4l-6.4-7.2 3 3.8 3.4 3.4z" stroke-linejoin="round"/>
  <path fill="#D29327" stroke="#D29327" stroke-width=".7" d="M271.1 218.8l-8.5-2.1 4.2 1.3 4.3.8z" stroke-linejoin="round"/>
  <path fill="#E5A22B" stroke="#E5A22B" stroke-width=".7" d="M310.2 223.9l3.4-2.6h.4v-.4l.4-.8-2.1 2.1-2.1 1.7z" stroke-linejoin="round"/>
  <path fill="#291509" stroke="#291509" stroke-width=".7" d="M255.4 221.8l-5.5-6.4 2.6 3.4 2.9 3zm27.1-.4l-14-5.9 6.8 3 7.2 2.9z" stroke-linejoin="round"/>
  <path fill="#D29327" stroke="#D29327" stroke-width=".7" d="M314 221.4h4.2l2.6-.4 2.5-.4h-4.7l-4.2-.4-.4.8v.4z" stroke-linejoin="round"/>
  <path fill="#E5A22B" stroke="#E5A22B" stroke-width=".7" d="M271.1 218.8l-8.5-2.1 4.2 1.3 4.3.8z" stroke-linejoin="round"/>
  <path fill="#522B0A" stroke="#522B0A" stroke-width=".7" d="M312.3 219.2l-10.2-.9 5.1.4 5.1.5z" stroke-linejoin="round"/>
  <path fill="#291509" stroke="#291509" stroke-width=".7" d="M312.3 219.2l11.5-2.6 3-3 3.4-3-3-1.7-3-2.1-2.6-3.8-2.1-4.2-16.1 3.8-16.1 3.4v3l3 .8 3.4.9h.9l3.8 3.8 3.8 3.8 5.1.4 5 .5z" stroke-linejoin="round"/>
  <path fill="#522B0A" stroke="#522B0A" stroke-width=".7" d="M203.9 211.2l-1.3.8.4-.4.9-.4zm119.9 5.5l6.4-5.9-3.4 3-3 2.9z" stroke-linejoin="round"/>
  <path fill="#190D06" stroke="#190D06" stroke-width=".7" d="M293.6 210.7h.9-.9z" stroke-linejoin="round"/>
  <path fill="#E5A22B" stroke="#E5A22B" stroke-width=".7" d="M432.6 206.1l.4 5.5-.4-2.6v-2.9z" stroke-linejoin="round"/>
  <path fill="#291509" stroke="#291509" stroke-width=".7" d="M263.9 212.4l5.5-1.7-.9-.4-.9-.4-2.1 1.3-1.6 1.2z" stroke-linejoin="round"/>
  <path fill="#522B0A" stroke="#522B0A" stroke-width=".7" d="M211.1 211.2l.4-.4-1.3-.4-.9-.4.9.9.9.3z" stroke-linejoin="round"/>
  <path fill="#291509" stroke="#291509" stroke-width=".7" d="M253.7 212l-14.9-17.8 7.2 8.9 7.7 8.9z" stroke-linejoin="round"/>
  <path fill="#D29327" stroke="#D29327" stroke-width=".7" d="M433 211.6l-.4-5.5v3l.4 2.5zm-165.3-1.7l1.7.9h2.1l-2.1-.4-1.7-.5z" stroke-linejoin="round"/>
  <path fill="#291509" stroke="#291509" stroke-width=".7" d="M211.6 210.7l-2.1-.9.9.4 1.2.5z" stroke-linejoin="round"/>
  <path fill="#522B0A" stroke="#522B0A" stroke-width=".7" d="M436.4 210.3l-5.1-10.2 2.5 5.1 2.6 5.1zm-199.3-.4l-9.3-11 4.7 5.5 4.6 5.5zm50.1-.9v-3 3zm48.5 0l-6.8-4.7 3.4 2.6 3.4 2.1zm-54.4-6.8l-14.9 3.8 7.2-1.7 7.7-2.1z" stroke-linejoin="round"/>
  <path fill="#291509" stroke="#291509" stroke-width=".7" d="M281.3 202.2l-.9-1.3-16.1-.9-15.7-.9 8.9 3.4 8.9 3.4 7.2-1.7 7.7-2z" stroke-linejoin="round"/>
  <path fill="#522B0A" stroke="#522B0A" stroke-width=".7" d="M324.2 206.9l-4.7-8.1 2.1 4.2 2.6 3.9z" stroke-linejoin="round"/>
  <path fill="#D29327" stroke="#D29327" stroke-width=".7" d="M361.2 205.6l.4-2.5-.4 1.3v1.2zm-82.1-11v3-3z" stroke-linejoin="round"/>
  <path fill="#291509" stroke="#291509" stroke-width=".7" d="M311 197.6l5.5-5.9L303 184l-13.6-8.1-11.1 2.1-11 1.7 21.7 8.9 22 9zm-62.4 1.6l-4.2-6.4 2.1 3.4 2.1 3zm30.1-.4l-2.1-4.2-1.3-1.3-1.3-1.7 2.1 3.8 2.6 3.4z" stroke-linejoin="round"/>
  <path fill="#E5A22B" stroke="#E5A22B" stroke-width=".7" d="M279.1 197.6v-3l-5.5-6.4-5.1-6.4.9 2.1.9 1.7.4 2.1.9 1.7 1.3 1.3 1.3.9 1.3 1.7 1.3 1.3 1.3 1.7 1 1.3z" stroke-linejoin="round"/>
  <path fill="#522B0A" stroke="#522B0A" stroke-width=".7" d="M311 197.6l5.5-5.9-3 3-2.5 2.9z" stroke-linejoin="round"/>
  <path fill="#291509" stroke="#291509" stroke-width=".7" d="M237.9 193.7l-4.2-5.9 2.1 3 2.1 2.9zm33.6-4.2l-1.3-3.8.4 2.1.9 1.7z" stroke-linejoin="round"/>
  <path fill="#522B0A" stroke="#522B0A" stroke-width=".7" d="M322.5 190.8l8.9-1.7-4.7.9-4.2.8z" stroke-linejoin="round"/>
  <path fill="#291509" stroke="#291509" stroke-width=".7" d="M241.3 189.5l-4.2-6.4 2.1 3.4 2.1 3z" stroke-linejoin="round"/>
  <path fill="#D29327" stroke="#D29327" stroke-width=".7" d="M305.9 178.4l1.7 4.7-.9-2.1-.8-2.6z" stroke-linejoin="round"/>
  <path fill="#291509" stroke="#291509" stroke-width=".7" d="M260.5 135.1l1.3 18.3 3 1.7 3.4 1.7 5.1 2.1 5.1 1.7 4.2 2.6 4.7 2.1 9.4 6 9.4 5.5-23-20.8-22.6-20.9zm-23.4 48l-8.9-13.6 4.3 6.8 4.6 6.8z" stroke-linejoin="round"/>
  <path fill="#E5A22B" stroke="#E5A22B" stroke-width=".7" d="M307.6 183.1l-1.7-4.7-2.6-1.3-2.1-1.3-.4 1.7v1.3l3.4 2.1 3.4 2.2z" stroke-linejoin="round"/>
  <path fill="#291509" stroke="#291509" stroke-width=".7" d="M227.7 179.3L217.1 164l5.1 7.6 5.5 7.7z" stroke-linejoin="round"/>
  <path fill="#D29327" stroke="#D29327" stroke-width=".7" d="M300.8 178.9l.4-3-.4 1.7v1.3z" stroke-linejoin="round"/>
  <path fill="#522B0A" stroke="#522B0A" stroke-width=".7" d="M305.9 176.7l-18.7-11.5 9.4 6 9.3 5.5z" stroke-linejoin="round"/>
  <path fill="#291509" stroke="#291509" stroke-width=".7" d="M284.7 174.6l-8.9-2.6 4.2 1.3 4.7 1.3zm-7.7-11h-6.4v3l6.4 2.6 6.8 2.1-3.4-3.8-3.4-3.9z" stroke-linejoin="round"/>
  <path fill="#522B0A" stroke="#522B0A" stroke-width=".7" d="M313.6 172.5l5.5-2.6-3 1.3-2.5 1.3z" stroke-linejoin="round"/>
  <path fill="#AE7225" stroke="#AE7225" stroke-width=".7" d="M313.6 172.5l27.2-23.8-3 4.7-2.6 4.7-8.1 5.9-8.1 5.9-3 1.3-2.4 1.3z" stroke-linejoin="round"/>
  <path fill="#291509" stroke="#291509" stroke-width=".7" d="M269 170.4l-11.5-15.7 5.5 8.1 6 7.6z" stroke-linejoin="round"/>
  <path fill="#522B0A" stroke="#522B0A" stroke-width=".7" d="M283.8 171.2l-13.2-4.7 6.4 2.6 6.8 2.1z" stroke-linejoin="round"/>
  <path fill="#190D06" stroke="#190D06" stroke-width=".7" d="M350.6 170.8l3.8-8.9-2.1 4.7-1.7 4.2zm-73.6-7.2h-6.4 6.4z" stroke-linejoin="round"/>
  <path fill="#291509" stroke="#291509" stroke-width=".7" d="M226 166.5l-5.1-7.2 2.6 3.8 2.5 3.4z" stroke-linejoin="round"/>
  <path fill="#190D06" stroke="#190D06" stroke-width=".7" d="M260.5 135.1l-5.1 2.1 3 8.1 3.4 8.1-.9-8.9-.4-9.4z" stroke-linejoin="round"/>
  <path fill="#522B0A" stroke="#522B0A" stroke-width=".7" d="M287.2 165.2l-8.9-4.7 4.2 2.6 4.7 2.1z" stroke-linejoin="round"/>
  <path fill="#190D06" stroke="#190D06" stroke-width=".7" d="M366.7 151.7l-12.3 10.2 6-5.1 6.3-5.1z" stroke-linejoin="round"/>
  <path fill="#522B0A" stroke="#522B0A" stroke-width=".7" d="M278.3 160.6l-10.2-3.8 5.1 2.1 5.1 1.7zm56.9-2.6l5.5-9.4-3 4.7-2.5 4.7z" stroke-linejoin="round"/>
  <path fill="#AE7225" stroke="#AE7225" stroke-width=".7" d="M334.8 150.8l-15.7 3.4 7.6-1.7 8.1-1.7z" stroke-linejoin="round"/>
  <path fill="#E5A22B" stroke="#E5A22B" stroke-width=".7" d="M334.8 150.8l-1.3-16.6-12.8 1.3-12.8 1.3 5.5 8.9 5.5 8.5 7.6-1.7 8.3-1.7z" stroke-linejoin="round"/>
  <path fill="#291509" stroke="#291509" stroke-width=".7" d="M261.7 153.4l-6.4-16.2-.9.4-.8.4v10.6l3.8 2.6 4.3 2.2z" stroke-linejoin="round"/>
  <path fill="#522B0A" stroke="#522B0A" stroke-width=".7" d="M185.2 150.4l-6.8-7.6 3.4 3.8 3.4 3.8z" stroke-linejoin="round"/>
  <path fill="#AE7225" stroke="#AE7225" stroke-width=".7" d="M328 149.5l-3-3.4.8-.4 1.3-.8-4.2-1.7-3.8-2.1-2.1-1.3-1.7-1.3 6.4 5.5 6.3 5.5z" stroke-linejoin="round"/>
  <path fill="#754909" stroke="#754909" stroke-width=".7" d="M328 149.5l1.3-.4.4-1.7.4-1.7-2.5.4h-2.5l1.3 1.7 1.6 1.7z" stroke-linejoin="round"/>
  <path fill="#AE7225" stroke="#AE7225" stroke-width=".7" d="M329.3 149.1l-.4-10.6-.4.8v.9l.4 1.7.4 1.7.4 1.3.4.8-.4 1.7-.4 1.7z" stroke-linejoin="round"/>
  <path fill="#522B0A" stroke="#522B0A" stroke-width=".7" d="M253.7 148.7v-10.6 10.6z" stroke-linejoin="round"/>
  <path fill="#AE7225" stroke="#AE7225" stroke-width=".7" d="M308.1 136.8l25.5-2.6-.9-.4-.4-.9 6.8-.4 6.8-.4 2.6-.4 3-.9h-17.8l-17.9-.4-10.2 2.5-9.8 2.6-3.8 1.3-3.4.8-5.5 2.6-5.5 2.1 15.3-2.6 15.2-2.9z" stroke-linejoin="round"/>
  <path fill="#522B0A" stroke="#522B0A" stroke-width=".7" d="M330.1 145.7l-.8-2.1-1.3.9-.8.4-1.3.8-.8.4h2.5l2.5-.4z" stroke-linejoin="round"/>
  <path fill="#E5A22B" stroke="#E5A22B" stroke-width=".7" d="M327.2 144.9l2.1-1.3-.4-1.7-.4-1.7-4.7.4-4.7.4 3.8 2.1 4.3 1.8z" stroke-linejoin="round"/>
  <path fill="#522B0A" stroke="#522B0A" stroke-width=".7" d="M359.1 144.4l5.1-5.5-2.5 3-2.6 2.5zm-111.8-.8l3-7.6-1.7 3.8-1.3 3.8zm30.2-1.3l11-4.7-5.5 2.6-5.5 2.1z" stroke-linejoin="round"/>
  <path fill="#291509" stroke="#291509" stroke-width=".7" d="M319.1 141l9.4-.9v-.9l.4-.8h-13.6l1.7 1.3 2.1 1.3zm-146.6-4.6l-7.2-7.7 3.4 3.8 3.8 3.9z" stroke-linejoin="round"/>
  <path fill="#522B0A" stroke="#522B0A" stroke-width=".7" d="M295.7 135.5l20-5.1-10.2 2.5-9.8 2.6zm-43.8-1.3l84.2-20.4L294 124l-42.1 10.2zm80.4-1.3l13.6-.8-6.8.4-6.8.4zm19.1-2.1l-35.7-.4 17.9.4h17.8z" stroke-linejoin="round"/>
  <path fill="#291509" stroke="#291509" stroke-width=".7" d="M152.1 115.1l-10.2-10.2 5.1 5.1 5.1 5.1z" stroke-linejoin="round"/>
  <path fill="#522B0A" stroke="#522B0A" stroke-width=".7" d="M336.1 113.8l17-.8-8.5.4-8.5.4z" stroke-linejoin="round"/>
  <path fill="#291509" stroke="#291509" stroke-width=".7" d="M181.4 112.1l-5.9-7.2-.8-.4-.4-.4 3.4 4.2 3.7 3.8z" stroke-linejoin="round"/>
  <path fill="#522B0A" stroke="#522B0A" stroke-width=".7" d="M181.4 112.1h.4l-3.4-3.4-3-3.8 3 3.8 3 3.4z" stroke-linejoin="round"/>
  <path fill="#291509" stroke="#291509" stroke-width=".7" d="M173.8 103.2l-7.6-8.5 3.8 4.2 3.8 4.3zM164 92.6l-8.9-11.5 4.2 6 4.7 5.5z" stroke-linejoin="round"/>
  <path fill="#522B0A" stroke="#522B0A" stroke-width=".7" d="M164 92.6h.4l-4.7-6-4.7-6.4v.8l4.2 6 4.8 5.6z" stroke-linejoin="round"/>
  <path fill="#291509" stroke="#291509" stroke-width=".7" d="M152.5 75.6l-8.1-10.2 3.8 5.1 4.3 5.1zM73.4 56l-19.1-6.4-.9.4h-.8l10.2 3 10.6 3z" stroke-linejoin="round"/>
  <path fill="#522B0A" stroke="#522B0A" stroke-width=".7" d="M52.6 50.1l1.7-.4H53l-.8-.4 1.3-.9 1.7-1.3h2.1l-2.5 1.7-2.2 1.3z" stroke-linejoin="round"/>
  <path fill="#754909" stroke="#754909" stroke-width=".7" d="M52.2 49.2l3-2.1-1.7 1.3-1.3.8z" stroke-linejoin="round"/>
  <path fill="#291509" stroke="#291509" stroke-width=".7" d="M132.9 47.5l-2.1-3 .4-2.1.9-2.6.4 3.8.4 3.9z" stroke-linejoin="round"/>
  <path fill="#522B0A" stroke="#522B0A" stroke-width=".7" d="M130.8 44.6l3.4-1.7-1.3-1.3-.8-1.7-.9 2.6-.4 2.1z" stroke-linejoin="round"/>
  <path fill="#190D06" stroke="#190D06" stroke-width=".7" d="M390.1.3h-1.3 1.3z" stroke-linejoin="round"/>
  <path fill="#291509" stroke="#291509" stroke-width=".7" d="M369.7.3h-5.1 5.1z" stroke-linejoin="round"/>
  <path fill="#190D06" stroke="#190D06" stroke-width=".7" d="M402.4.3h-.4.4z" stroke-linejoin="round"/>
  <path fill="none" d="M450.4 40.9h146.1v530.9H450.4z"/>
  <path fill="#AE7225" stroke="#AE7225" stroke-width=".7" d="M571.2 58c0 4.3-3 6.9-8.9 7.6h-7.6l-1.8 1.8v.6c0 2.6 3 8.5 8.9 17.6v1.8c0 5.7-8.1 11.8-24.2 18.3h-1.8l-10-1.2-14.2 3.5c-3.5 0-5.3-4.1-5.3-12.4.5-4.3 2.7-6.5 6.5-6.5l8.8.6c12.2-.3 18.3-1.2 18.3-2.9v-.6c-11.3-7.7-19-13.4-22.9-17.1-7.8-7.8-11.8-14.1-11.8-18.8 1.4-4.3 3.8-6.5 7.1-6.5 12.3 3.9 24.7 5.9 37.1 5.9 2.7 0 6.9-.8 12.4-2.4 5.8.1 9 3.6 9.4 10.7zm-9.1 96.7v1.5c0 7.5-4.9 12.4-14.6 14.6l-5.2.3H539c-23.8-2.3-37.6-6.3-41.4-11.9-8.1-4.9-12.1-16.9-12.2-36l3-6.4 8 2c1.8 10.4 2.4 19.2 2 26.4 2.1 4.3 7.5 6.9 16 7.6h4.7l.5-.3h.5c-6.6-9.5-10-17-10-22.5v-1.9c1.1-7.3 4.9-10.9 11.4-10.9h1.9c10.9 0 22.5 8.3 34.9 24.8 2.6 4.1 3.8 8.4 3.8 12.7zm-35.9-27.4l-.4 1.1c1.1 6.2 4.8 12.3 10.8 18.4 3.5 2.7 6 4.1 7.6 4.1h1.4v-1.1c0-6.5-6-14-18-22.5h-1.4zm69 92.6c0 10.7-4.8 17.4-14.5 20.1-6.8-1.1-10.3-4.1-10.3-8.8 0-1.6 1.7-4.1 5.1-7.5l.4-2.3V220c0-8.8-5-16-14.9-21.5l-4.2-.4h-5.6c-12.5 0-21.7 5.9-27.6 17.7l-.9 6.5v3.3c0 13.2 7 27.8 21 43.9l1.9 4.6c-.7 1.9-1.3 2.8-1.9 2.8h-.9c-13.3-4.8-23.3-12.9-29.9-24.3-5.3-14.2-8-23-8-26.6v-1c0-16.6 4.2-27.5 12.6-32.7 12.3-7.8 25.6-11.7 39.7-11.7h5.1c8.9 0 15.4 3.1 19.6 9.3 8.9 10.1 13.3 20.1 13.3 30zm-30.5 104c-2.2 13.6-5.9 20.4-11.2 20.4-25.4-.5-38.1-2-38.1-4.4l-1.2-1.1v-1c.7-4.1 4.2-6.2 10.4-6.2l.8-1v-1.8l-11.6-9.3c-5.3-5.5-8-11.1-8-16.9 0-9.8 5.9-17 17.6-21.4l2.5-.3c7.2 0 17.8 8.3 31.6 24.9 4.8 6.9 7.2 13 7.2 18.1zm-39.4-28.4c-3.2 0-4.8 1.4-4.8 4.2v1c0 10.8 10.7 20.9 32 30.3h.8l.4-1c-.8-7.7-7.9-17.8-21.2-30.3-3.7-2.8-6.1-4.2-7.2-4.2zm39.8 109.9c-.8 5.5-8.8 11-24.1 16.4l-5.4.9-6.9.6c-10 1.1-16.3-1.5-18.9-7.6l-.8-2.6c.3-2.3 4.6-4.2 12.8-5.5l3-.3 12.6-1 .1-.7c-6.9-5.6-15.4-8.9-25.5-10.1-3-2.8-4.3-5.8-3.9-8.9.8-6.3 6.9-10 18.2-11.3 7-.7 10.6-1.5 10.7-2.5.3-2-8.8-3.2-27.1-3.6-3.4-1.4-5.6-5.6-6.6-12.7v-.4c.4-2 3.4-3.3 9.1-3.9 23.8 0 41.6 2.1 53.5 6.3 1.4.9 2 1.9 1.9 2.9-2.4 1.5-5.4 2.4-8.9 2.8-.2 1 1.1 3.8 3.9 8.2v.7c-.3 2.4-4.2 5-11.5 7.9-9.7 3.2-14.9 5.2-15.8 6.1 0 .4 4.8 1.6 14.4 3.8 10.5 4.5 15.3 9.4 14.6 14.6l.6-.1zm-.8 57.8v1c0 5.1-2.9 10.9-8.6 17.3-6.1 6.3-11.2 10.1-15.5 11.3-3.9-1.4-5.9-8.9-5.9-22.3 0-14.8-.9-22.7-2.8-23.7h-.5c-7.6 2.1-11.4 6.6-11.4 13.7v1.3c0 4.4 2.9 13.7 8.7 27.9v2.2l-1.4.4c-6.7-3.1-12.3-10.2-16.9-21.4-2.7-3.8-4.1-9.6-4.1-17.3 1-5.4 4.1-10.9 9.1-16.5 4.9-3.6 8.8-5.5 11.9-5.5 11.5 1.2 21.3 4.6 29.2 10.1 3.2 2.2 5.9 9.4 8.2 21.5zM545 446.9v1.6c2.1 13.1 3.4 23.2 3.8 30.2h1.6c1.9-.9 3.9-4.3 5.8-10.1 0-6.3-3.2-13.4-9.6-21.2l-1.6-.5zm19.4 83.9c0 12-5.1 20.9-15.2 26.7-11.3 6.3-18.3 9.5-20.9 9.5-2.9 0-9.1-11.3-18.5-33.8-2.9-8.5-4.3-15.2-4.3-20v-.5c0-8.5 4.6-12.8 13.8-12.8v-.5c13.7 0 25.3 9.5 34.7 28.6h.9c.9 0 1.7-4.3 2.4-12.9l.4-.4h.9c2.1-.1 4 5.3 5.8 16.1zM528.2 518h-.4c-3.9 0-6.2 2.4-6.7 7.2v3.3c0 8.3 4.3 14.5 12.9 18.6l3.3.4c9.2-2.4 13.8-5.6 13.8-9.5-3.2-6.6-10-13.1-20.5-19.5l-2.4-.5z" stroke-linejoin="round"/>
</svg>
